<?xml version="1.0" encoding="utf-8"?>
<!DOCTYPE svg PUBLIC "-//W3C//DTD SVG 1.1//EN" "http://www.w3.org/Graphics/SVG/1.1/DTD/svg11.dtd">
<svg version="1.1" id="Layer_1" xmlns="http://www.w3.org/2000/svg" xmlns:xlink="http://www.w3.org/1999/xlink" x="0px" y="0px"
	 width="792px" height="612px" viewBox="0 0 792 612" enable-background="new 0 0 792 612" xml:space="preserve">
<g>
	<path stroke="#459641" fill="rgba(255,255,255,0)" d="M334.24,432.359
		c-0.089-0.004-1.563-0.06-4.351-0.167
		c-2.883-0.126-7.162-0.312-12.744-0.556
		c-11.154-0.533-27.51-1.401-48.291-2.987
		c-20.779-1.594-45.99-3.934-74.774-7.82
		c-14.386-1.976-29.673-4.302-45.681-7.443
		c-8.001-1.578-16.184-3.355-24.496-5.475
		c-8.305-2.142-16.771-4.536-25.228-7.658
		c-4.222-1.574-8.453-3.301-12.591-5.406
		c-4.131-2.098-8.221-4.51-11.885-7.723
		c-0.446-0.416-0.91-0.81-1.342-1.248
		c-0.438-0.46-0.836-0.856-1.302-1.371
		c-0.749-0.902-1.51-1.753-2.252-2.704
		c-1.495-1.937-2.917-3.884-4.144-5.992
		c-2.52-4.161-4.439-8.799-5.381-13.729
		c-0.918-4.931-0.711-10.143,0.744-15.106
		c1.455-4.958,4.28-9.653,8.251-13.303
		c3.956-3.675,9.041-6.116,14.332-7.266
		l1.997-0.392
		l2.014-0.271
		c0.221-0.026,0.216-0.037,0.623-0.075
		l0.473-0.03
		l0.947-0.059
		l1.896-0.119c0.646-0.025,1.233-0.109,1.931-0.088
		l2.078,0.054
		l2.083,0.064
		c0.69,0.034,1.353,0.151,2.031,0.226
		c5.428,0.587,10.668,2.291,15.551,4.144
		c4.905,1.849,9.629,3.762,14.51,5.218
		c9.74,2.958,20.02,4.416,30.531,4.872
		c2.619,0.197,5.271,0.149,7.922,0.18
		c1.326,0.009,2.652,0.018,3.982,0.027
		c1.32-0.053,2.643-0.105,3.967-0.157
		l3.773-0.367
		l3.861-0.575
		c1.281-0.258,2.566-0.491,3.848-0.768
		l3.83-0.946
		c10.195-2.751,20.074-7.263,29.64-12.546
		c9.579-5.29,18.864-11.412,28.024-17.889
		c9.158-6.488,18.201-13.337,27.265-20.314
		c18.117-13.968,36.312-28.466,55.407-42.218
		c19.078-13.75,39.094-26.788,60.555-37.603
		c21.422-10.804,44.402-19.296,68.395-23.577
		c6-1.013,12.032-1.886,18.105-2.394
		c1.514-0.17,3.037-0.23,4.557-0.339
		l2.28-0.146
		l1.19-0.075
		l1.111-0.042
		l4.449-0.17
		l4.561-0.091
		c12.096-0.178,24.133,0.365,36.106,1.512
		c23.933,2.334,47.511,7.126,70.23,14.164
		c11.356,3.531,22.504,7.627,33.337,12.359
		c10.838,4.718,21.371,10.056,31.453,16.105
		c10.089,6.03,19.721,12.802,28.628,20.441
		c8.892,7.643,17.082,16.185,23.861,25.877
		c3.384,4.843,6.401,9.976,8.901,15.386
		c2.468,5.422,4.522,11.065,6.037,16.913
		c1.52,5.838,2.44,11.925,2.354,18.026
		c0.016,0.763-0.028,1.522-0.086,2.281
		l-0.165,2.276
		c-0.134,1.514-0.397,3.009-0.608,4.51
		c-0.006,0.116-0.214,1.055-0.182,0.888
		l-0.114,0.492
		l-0.229,0.983
		l-0.456,1.964
		c-0.479,1.594-1.037,3.269-1.588,4.88
		c-2.279,5.94-5.584,11.233-9.352,15.86
		c-3.774,4.635-8,8.639-12.39,12.224
		c-8.817,7.145-18.312,12.545-27.819,17.24
		c-9.549,4.607-19.18,8.433-28.757,11.774
		c-9.576,3.35-19.118,6.158-28.542,8.655
		c-18.853,4.991-37.246,8.706-54.949,11.778
		c-17.705,3.076-34.74,5.408-50.963,7.315
		c-16.225,1.896-31.639,3.363-46.137,4.512
		c-28.996,2.304-54.316,3.421-75.176,3.982
		c-20.861,0.556-37.266,0.535-48.455,0.396
		c-5.594-0.073-9.886-0.172-12.777-0.248
		c2.894-0.084-4.387-0.127-4.387-0.127
		"/>
</g>
</svg>
