<?xml version="1.0" encoding="utf-8"?>
<!DOCTYPE svg PUBLIC "-//W3C//DTD SVG 1.1//EN" "http://www.w3.org/Graphics/SVG/1.1/DTD/svg11.dtd">
<svg version="1.1" id="Layer_1" xmlns="http://www.w3.org/2000/svg" xmlns:xlink="http://www.w3.org/1999/xlink" x="0px" y="0px"
	 width="1280px" height="1024px" viewBox="0 0 1280 1024" enable-background="new 0 0 1280 1024" xml:space="preserve">
<title>monogram leaf swirl</title>
<g>
	<title>Layer 1</title>
	<path id="path3801" d="M750.787,32.731c-21.717,0.165-42.581,18.716-46.431,45.385c-2.555,17.692-0.105,29.901,9.123,45.927
		c3.562,6.437,12.623,21.325,20.358,28.436c0.91,0.837,0.882,3.15-1.046,2.46c-13.482-3.554-28.679-2.875-46.354,0.542l3.486,2.093
		c43.269-6.491,74.138,16.445,91.797,44.706c1.319-0.097,2.664-0.154,4.01-0.154c0.449,0,0.89,0.008,1.336,0.02
		c-0.01-0.311-0.02-0.618-0.02-0.931c0-1.663,0.145-3.292,0.407-4.881c-6.654-9.242-14.625-18.194-23.807-26.383
		c-11.811-10.534-34.991-47.962-22.721-58.227c12.373-10.351,32.557,1.207,27.273,15.845c-2.392,6.624-10.306,7.512-8.155,2.324
		c2.524-6.09-4.194-11.777-11.486-6.043c-5.313,4.176,1.199,12.827,7.516,14.314c9.059,2.134,17.497-5.764,16.717-16.581
		c-0.889-12.308-20.729-21.984-32.039-13.172s-5.069,26.918,1.104,40.503c2.991,6.583,0.145,6.25-3.971,2.034
		c-11.212-11.485-16.063-18.054-22.586-30.973c-4.765-9.437-5.197-18.731-3.196-23.574c3.188-7.719,9.015-9.567,13.036-4.146
		c3.912,5.274,6.94,6.049,8.62,2.267c1.963-4.421-4.925-11.217-10.596-10.46c-8.414,1.123-13.325,5.371-14.432,12.532l-1.084,6.935
		l-1.221-8.891c-1.576-11.345,2.294-23.98,8.93-29.21c7.413-5.843,17.781-2.921,25.046,7.07c6.204,8.533,11.485,10.719,13.733,5.656
		c3.226-7.264-11.677-20.768-23.496-21.288c-5.433-0.239-8.8,0.656-12.765,3.429c-8.653,6.051-8.184,3.315,1.046-6.102
		c13.934-14.218,26.438-15.396,43.486-4.029c10.455,6.971,17.039,5.648,15.612-3.157c-0.085-0.528-0.191-1.036-0.329-1.511
		c-0.962-3.323-3.314-5.477-8.813-8.349C763.017,34.085,756.867,32.685,750.787,32.731L750.787,32.731z M921.847,202.183
		c-1.288,0.018-2.623,0.237-3.971,0.659c-2.741,1.106-5.302,3.108-7.129,5.404c-4.848,6.093-6.196,22.114-5.017,35.312
		c3.113,34.821,5.637,34.133-5.695,52.901c-12.501,20.706-31.064,19.456-59.796,17.704c-8.914-0.543-16.336-2.195-28.339-2.383
		c-12.775-0.742-21.882,1.704-31.961,4.281c2.78-2.066,5.369-4.261,7.787-6.566c-0.667,0.024-1.323,0.038-1.995,0.038
		c-3.449,0-6.824-0.327-10.093-0.949c-6.39,5.714-14.237,10.623-23.768,14.044c1.126,2.064,2,4.274,2.596,6.605
		c4.285-1.432,8.346-3.1,12.165-4.998c0.008-0.003,0.012-0.016,0.02-0.019c14.454-2.725,30.168-4.399,45.656-1.53
		c14.307,2.184,25.49,13.246,33.976,24.348c2.51,3.635,4.723,8.751,5.656,12.921c0.499,2.23,1.153,6.136,1.026,7.729
		c-0.298,3.73-3.22,4.516-5.656,5.985c-3.029,1.827-6.522,3.884-8.407,6.45c-2.65,3.61-1.991,7.287,1.085,9.434
		c3.586,2.301,11.071,2.371,13.075-0.213c1.542-1.989-0.332-4.194-6.354-2.848c-6.287,1.406-5.002-3.556-2.557-6.625
		c1.794-2.251,4.7-3.808,6.818-4.707c5.621-2.386,5.637-4.319,4.843-7.477c-0.508-2.018-0.088-2.065,1.259-0.349
		c11.295,14.43,20.983,23.05,29.675,25.259c8.692,2.209,12.04,2.244,16.717,1.743c4.677-0.5,8.57-3.29,9.065-8.891
		c0.575-6.497-11.864-11.539-18.033-8.62c-1.264,0.599-1.838,2.83-0.388,4.804c2.408,3.277,6.647,2.601,6.159-0.387
		c-0.478-2.933,2.545-1.823,5.347,0.774c3.222,2.986,2.231,5.658-1.143,7.941c-2.271,1.537-4.315,1.815-11.139,1.434
		c-8.957-1.49-14.166-4.65-18.789-8.542c-5.17-4.353-9.433-9.736-13.772-16.93c-3.355-5.563-6.358-11.684-12.028-21.463
		c-0.449-0.774-2.712-4.018-4.223-5.539c-2.131-2.146-4.911-4.693-7.69-7.129c0.498,0.295,0.996,0.582,1.491,0.892
		c38.943,17.93,20.879,17.24,100.668,48.058c78.346,30.26,100.566,13.01,172.493,1.123c26.868-5.275,59.51-18.727,67.603-23.399
		c38.248-22.083,43.205-2.866,58.596,0.504c2.537,0.473,5.326,0.684,7.729,0.426c5.089-0.545,10.005-0.912,15.399-10.847
		c3.98-7.33,0.753-13.801-6.392-16.368c-6.901-2.48-8.438,0.996-3.797,8.562c6.809,13.291-1.962,16.347-13.404,13.792
		c-9.249-2.065-7.809-3.987-17.201-8.078c-19.31-8.41-31.468,4.702-25.395-3.39c12.6-16.784,32.898-39.748,38.489-62.218
		c3.272-13.151,0.814-34.382-4.959-42.809c-4.296-6.268-10.273-13.048-21.152-12.997c-1.125,0.006-2.312,0.093-3.545,0.252
		c-16.606,2.144-25.919,22.141-12.436,26.46c3.119,0.999,7.62,2.275,11.545-0.601c6.515-4.775,2.769-11.585-4.029-10.034
		c-6.672,1.522-7.215-1.995-2.499-7.244c5.423-6.037,13.864-6.803,20.939-1.841c18.994,16.893,15.163,48.991,0.562,71.846
		c-6.955,10.886-18.035,22.862-23.825,31.438c-4.399,6.517-26.732,23.402-30.257,23.69c-0.806,0.065,4.565-9.168,6.548-15.129
		c6.205-18.665,4.015-39.352-9.201-45.269c-3.374-1.51-7.257-2.354-17.802,1.395c12.73-2.442,23.144,2.677,25.646,15.07
		c3.637,18.01-4.811,34.306-14.431,43.196c-15.059,13.917-93.051,30.261-132.92,29.578c-5.08-0.087-8.452-0.716-2.576-4.319
		c21.864-10.997,32.164-20.912,38.198-36.688c2.391-6.248,2.796-12.279,3.564-21.365c0.152-2.546,2.471-10.695,5.463-15.361
		c14.839-20.484,48.678-21.498,52.513-5.559c6.234,17.074-6.928,35.283-20.319,27.061c-7.695-4.726-7.039-18.21,0.852-17.782
		c4.883,0.265,6.017,3.592,2.402,6.896c-2.115,1.934-2.301,2.832-0.658,2.906c3.664,0.164,7.077-4.286,6.275-8.214
		c-1.173-5.747-8.724-6.932-14.354-2.247c-11.382,9.474-1.938,26.564,13.676,24.795c6.384-0.724,11.275-4.783,15.361-12.591
		c6.262-17.816-0.17-35.272-20.514-36.901c-5.646-0.451-13.862,0.874-18.519,3.119c5.758-8.564,13.554-16.604,18.867-20.087
		c6.781-4.446,9.241-5.274,15.38-5.25c7.705,0.032,13.173,3.893,14.237,9.763c1.349,7.434-8.66,13.106-12.862,7.633
		c-2.574-3.354,1.682-5.512,2.538-3.313c0.534,1.37,2.863,0.773,3.273-1.201c1.265-6.084-4.956-7.09-7.651-1.375
		c-2.963,7.262,3.3,10.499,8.853,9.182c11.36-3.42,10.632-17.091-1.201-22.548c-3.876-1.787-8.916-1.991-14.179-0.833
		c-7.849,2.005-16.818,10.194-22.276,16.116c-8.451,9.17-16.816,16.224-24.774,24.697c-2.74,3.015-4.528,7.146-4.591,8.543
		c-0.071,1.573-2.854-9.69-7.555-16.446c-8.175-11.746-14.847-15.892-23.108-17.956c-6.001-1.565-14.333-0.307-11.739,5.656
		c2.006,4.608,4.754,1.597,14.741,3.003c6.585,0.927,11.511,3.462,16.213,9.181c8.284,10.075,9.567,21.872,8.349,34.983
		c1.08,23.995-20.32,39.86-43.68,49.666c-35.495,14.109-103.369-17.461-139.331-38.237c-11.064-6.393-18.884-10.968-26.46-14.857
		c-6.148-3.156-12.137-5.862-19.564-8.717c-0.58-0.146-2.289-1.159,0.155-0.813c70.53,5.106,69.504-5.743,93.732-49.355
		c12.457-18.985,37.423-14.63,37.54,2.789c0.048,7.042-6.14,11.504-6.218,5.889c-0.091-6.592-9.285-9.371-13.714-1.221
		c-3.226,5.938,6.182,11.303,12.571,10.17c9.164-1.625,13.353-11.99,8.794-21.83c-4.241-9.157-10.772-11.488-20.979-10.867
		c-11.556,0.703-19.12,8.609-26.595,22.354c0.186-22.857-6.95-41.2-1.686-58.44c2.166-7.092,3.778-9.563,6.527-11.273
		c4.087-2.543,8.959-2.507,10.983,1.82c1.761,3.764,0.444,5.878-2.712,4.32c-3.216-1.588-6.411,4.013-3.699,7.632
		c1.633,2.18,5.692,2.493,7.36,2.131c4.911-1.069,6.095-9.051,3.196-14.722C929.171,203.933,925.712,202.131,921.847,202.183z"/>
	<path id="path3839" fill="#FF7F00" d="M733.761,312.691c-1.477,2.427-3.019,4.806-4.669,7.108
		c8.074,1.224,14.257,8.184,14.257,16.601c0,9.28-7.514,16.794-16.794,16.794c-7.947,0-14.602-5.508-16.349-12.92
		c-2.165,1.834-4.402,3.58-6.702,5.249c3.631,9.17,12.585,15.651,23.051,15.651c13.688,0,24.774-11.086,24.774-24.774
		C751.329,325.223,743.925,315.779,733.761,312.691z"/>
	<path id="path3841" d="M726.555,323.635c-0.123,0-0.246,0.017-0.368,0.02c-3.758,4.799-7.905,9.275-12.378,13.404
		c0.001,0.007,0,0.013,0,0.02c0.353,6.729,5.93,12.087,12.746,12.087c7.043,0,12.765-5.723,12.765-12.765
		C739.319,329.357,733.598,323.635,726.555,323.635L726.555,323.635z M726.555,333.224c1.761,0,3.177,1.416,3.177,3.177
		s-1.416,3.177-3.177,3.177s-3.177-1.416-3.177-3.177S724.794,333.224,726.555,333.224z"/>
	<path id="path3649" d="M785.731,205.883c-15.987,0-30.22,7.522-39.361,19.215c1.624,6.114,2.736,12.431,3.313,18.906
		c4.968-15.158,19.23-26.111,36.049-26.111c2.348,0,4.646,0.23,6.876,0.639c-2.625-3.668-4.453-7.963-5.191-12.61
		C786.859,205.903,786.293,205.883,785.731,205.883z M827.765,228.914c-3.387,1.338-7.063,2.072-10.925,2.072
		c-0.863,0-1.731-0.044-2.576-0.116c5.84,6.672,9.395,15.388,9.395,24.949c0,20.945-16.981,37.928-37.927,37.928
		c-17.111,0-31.578-11.336-36.301-26.906c-0.723,6.453-1.994,12.732-3.758,18.809c9.105,12.209,23.662,20.107,40.059,20.107
		c27.572,0,49.917-22.364,49.917-49.938C835.648,245.908,832.744,236.683,827.765,228.914z"/>
	<path id="path3664" fill="#FF7F00" d="M612.991,55.647c-13.688,0-24.774,11.086-24.774,24.774
		c0,13.688,11.086,24.774,24.774,24.774c13.688,0,24.773-11.086,24.773-24.774C637.765,66.733,626.679,55.647,612.991,55.647z
		 M612.991,63.624c9.28,0,16.798,7.518,16.798,16.798c0,9.28-7.518,16.798-16.798,16.798s-16.798-7.518-16.798-16.798
		C596.193,71.142,603.711,63.624,612.991,63.624z"/>
	<path id="path3666" d="M612.991,67.66c-7.043,0-12.762,5.719-12.762,12.762c0,7.042,5.719,12.762,12.762,12.762
		c7.042,0,12.762-5.719,12.762-12.762C625.753,73.379,620.033,67.66,612.991,67.66z M612.991,77.249
		c1.761,0,3.173,1.413,3.173,3.173c0,1.76-1.412,3.173-3.173,3.173s-3.174-1.413-3.174-3.173
		C609.817,78.661,611.23,77.249,612.991,77.249z"/>
	<path id="path3072" d="M516.494,432.321c12.42-11.001,13.57-29.975,2.569-42.395c-11.001-12.421-29.975-13.57-42.396-2.569
		c-10.745,9.517-13.056,25.003-6.361,37.048c3.85-1.382,8.034-1.436,11.879-0.173c-0.288-0.29-0.563-0.591-0.838-0.9
		c-7.459-8.421-6.68-21.268,1.74-28.727c8.421-7.458,21.269-6.68,28.727,1.741c7.458,8.42,6.68,21.268-1.741,28.727
		c-5.76,5.102-13.595,6.364-20.36,3.948c0.144,0.151,0.291,0.282,0.431,0.44c2.66,3.003,4.133,6.645,4.49,10.354
		C502.345,440.317,510.248,437.854,516.494,432.321z"/>
	<path id="path3074" fill="#FF7F00" d="M506.838,421.423c6.391-5.66,6.983-15.445,1.323-21.836s-15.445-6.983-21.836-1.323
		s-6.983,15.445-1.323,21.836S500.447,427.083,506.838,421.423z M499.132,412.723c-1.598,1.415-4.015,1.269-5.43-0.329
		s-1.269-4.015,0.329-5.43s4.015-1.269,5.43,0.329S500.729,411.308,499.132,412.723z"/>
	<g id="g3076" transform="matrix(-0.893873 0.791723 -0.791723 -0.893873 1806.23 743.822)">
		<path id="path3078" d="M665.816,914.162c-7.561,0-13.693,6.133-13.693,13.693c-0.001,7.561,6.132,13.693,13.693,13.694
			c7.561-0.001,13.693-6.133,13.693-13.693C679.509,920.294,673.376,914.162,665.816,914.162z M665.816,917.353
			c5.796-0.001,10.502,4.706,10.503,10.502c0,5.796-4.706,10.503-10.503,10.503c-5.796,0-10.502-4.707-10.502-10.503
			C655.313,922.059,660.019,917.352,665.816,917.353z"/>
		<path id="path3080" d="M669.545,927.856c0,2.061-1.672,3.733-3.733,3.732c-2.061,0-3.733-1.671-3.732-3.732
			c0-2.062,1.671-3.733,3.733-3.733C667.873,924.124,669.545,925.795,669.545,927.856z"/>
	</g>
	<g id="g2935" transform="matrix(0.994312 0 0 0.994312 94.4682 -170.309)">
		<path id="path3789" d="M287.168,442.411c-8.65,0-15.652,7.003-15.652,15.653c0,8.65,7.003,15.69,15.652,15.69
			s15.653-7.04,15.653-15.69C302.821,449.414,295.818,442.411,287.168,442.411z M287.168,445.43c6.986,0,12.634,5.648,12.634,12.634
			s-5.648,12.672-12.634,12.672s-12.634-5.686-12.634-12.672S280.182,445.43,287.168,445.43z"/>
		<path id="path3793" d="M291.687,458.08c0,2.496-2.022,4.518-4.518,4.518c-2.495,0-4.517-2.022-4.517-4.518
			c0-2.495,2.022-4.517,4.517-4.517C289.665,453.563,291.687,455.585,291.687,458.08z"/>
	</g>
	<g id="g2942" transform="matrix(0.994312 0 0 0.994312 -207.474 -80.1438)">
		<path id="path3785" fill="#FF7F00" d="M373.433,320.654c-5.936,0-10.75,4.815-10.75,10.75s4.814,10.75,10.75,10.75
			c5.935,0,10.75-4.814,10.75-10.75S379.368,320.654,373.433,320.654z M373.433,323.159c4.55,0,8.245,3.695,8.245,8.245
			s-3.695,8.245-8.245,8.245c-4.551,0-8.246-3.695-8.246-8.245S368.882,323.159,373.433,323.159z"/>
		<g id="g2939">
			<path id="path3787" fill="#FF7F00" d="M375.075,331.405c0,0.908-0.736,1.644-1.645,1.644c-0.908,0-1.644-0.736-1.644-1.644
				s0.736-1.644,1.644-1.644C374.339,329.761,375.075,330.496,375.075,331.405z"/>
		</g>
	</g>
	<g id="g2957" transform="matrix(0.994312 0 0 0.994312 -60.1644 -133.136)">
		<path id="path3779" d="M529.292,286.318c-6.934,0-12.559,5.624-12.559,12.558c0,6.935,5.625,12.559,12.559,12.559
			c6.934,0,12.559-5.624,12.559-12.559C541.851,291.942,536.226,286.318,529.292,286.318z M529.292,289.244
			c5.316,0,9.633,4.317,9.633,9.632c0,5.316-4.317,9.633-9.633,9.633c-5.316,0-9.633-4.317-9.633-9.633
			C519.659,293.561,523.976,289.244,529.292,289.244z"/>
		<path id="path3781" d="M531.524,298.878c0,1.234-1.001,2.234-2.234,2.234s-2.234-1.001-2.234-2.234s1.001-2.234,2.234-2.234
			S531.524,297.644,531.524,298.878z"/>
	</g>
	<path id="path3773" d="M625.611,120.697c-6.174,0-11.181,5.007-11.181,11.18s5.007,11.18,11.181,11.18
		c6.173,0,11.18-5.007,11.18-11.18S631.784,120.697,625.611,120.697z M625.611,123.302c4.732,0,8.575,3.842,8.575,8.575
		c0,4.732-3.843,8.575-8.575,8.575c-4.733,0-8.576-3.843-8.576-8.575C617.035,127.144,620.878,123.302,625.611,123.302z"/>
	<path id="path3726" fill="#FF7F00" d="M506.929,219.972c-22.84,0-41.355,18.516-41.355,41.355c0,6.207,1.366,12.1,3.816,17.379
		c1.253-0.722,2.675-1.148,4.225-1.148c4.714,0,8.561,3.847,8.561,8.561c0,2.433-1.035,4.597-2.669,6.151
		c7.301,6.467,16.897,10.376,27.423,10.376c9.896,0,18.968-3.511,26.088-9.302c-1.573-4.17-2.896-8.467-3.966-12.858
		c-5.371,6.179-13.284,10.079-22.122,10.079c-16.178,0-29.313-13.06-29.313-29.237s13.135-29.313,29.313-29.313
		c7.659,0,14.642,2.968,19.862,7.782c0.576-4.506,1.422-8.945,2.52-13.267C522.857,222.369,515.175,219.972,506.929,219.972z"/>
	<path id="path3728" d="M506.929,237.166c-13.323,0-24.124,10.838-24.124,24.161c0,13.322,10.801,24.087,24.124,24.087
		c8.794,0,16.495-4.688,20.715-11.71c-1.136-6.378-1.742-12.938-1.742-19.641c0-2.446,0.104-4.893,0.26-7.3
		C521.752,240.957,514.775,237.166,506.929,237.166z M506.929,247.838c7.423,0,13.414,6.066,13.414,13.489
		c0,7.422-5.991,13.414-13.414,13.414s-13.415-5.992-13.415-13.414C493.514,253.904,499.506,247.838,506.929,247.838z"/>
	<g id="g2996" transform="matrix(0.994312 0 0 0.994312 -60.1644 -133.136)">
		<path id="path3686" d="M661.087,494.215c-9.981,0-18.076,8.095-18.076,18.075c0,9.981,8.095,18.075,18.076,18.075
			s18.075-8.095,18.075-18.075C679.162,502.309,671.067,494.215,661.087,494.215z M661.087,498.426
			c7.651,0,13.864,6.212,13.864,13.864c0,7.652-6.213,13.864-13.864,13.864c-7.652,0-13.864-6.212-13.864-13.864
			C647.223,504.638,653.435,498.426,661.087,498.426z"/>
		<path id="path3690" d="M666.804,512.292c0,3.161-2.561,5.722-5.722,5.722c-3.161,0-5.722-2.561-5.722-5.722
			c0-3.161,2.561-5.722,5.722-5.722C664.242,506.57,666.804,509.131,666.804,512.292z"/>
	</g>
	<path id="path3678" d="M557.326,297.791c-19.848,0-35.945,16.098-35.945,35.945c0,19.847,16.098,35.907,35.945,35.907
		c19.847,0,35.944-16.061,35.944-35.907C593.27,313.888,577.173,297.791,557.326,297.791z M557.326,308.278
		c14.058,0,25.458,11.399,25.458,25.458c0,14.058-11.4,25.421-25.458,25.421c-14.059,0-25.459-11.363-25.459-25.421
		C531.867,319.678,543.267,308.278,557.326,308.278z"/>
	<path id="path3682" fill="#FF7F00" d="M557.326,312.762c-11.578,0-20.975,9.396-20.975,20.975c0,11.577,9.396,20.937,20.975,20.937
		c11.577,0,20.974-9.359,20.974-20.937C578.3,322.158,568.903,312.762,557.326,312.762z M557.326,322.026
		c6.45,0,11.673,5.26,11.673,11.71s-5.223,11.673-11.673,11.673c-6.451,0-11.674-5.223-11.674-11.673
		S550.875,322.026,557.326,322.026z"/>
	<path id="path3670" d="M654.326,322.653c-19.984,0-36.17,16.185-36.17,36.17c0,19.984,16.186,36.169,36.17,36.169
		s36.17-16.185,36.17-36.169C690.496,338.838,674.31,322.653,654.326,322.653z M654.326,334.298
		c13.549,0,24.524,10.977,24.524,24.525c0,13.548-10.976,24.524-24.524,24.524s-24.524-10.977-24.524-24.524
		C629.802,345.274,640.777,334.298,654.326,334.298z"/>
	<path id="path3672" fill="#FF7F00" d="M654.326,340.19c-10.282,0-18.632,8.351-18.632,18.633c0,10.281,8.35,18.631,18.632,18.631
		s18.632-8.35,18.632-18.631C672.958,348.541,664.608,340.19,654.326,340.19z M654.326,354.19c2.57,0,4.633,2.062,4.633,4.633
		c0,2.57-2.063,4.632-4.633,4.632s-4.633-2.062-4.633-4.632C649.693,356.252,651.756,354.19,654.326,354.19z"/>
	<path id="path2849" d="M548.654,92.161c-34.401,0-62.293,27.892-62.293,62.292c0,34.401,27.892,62.293,62.293,62.293
		s62.293-27.892,62.293-62.293C610.947,120.053,583.055,92.161,548.654,92.161z M548.654,110.727
		c24.146,0,43.728,19.58,43.728,43.727c0,24.147-19.581,43.69-43.728,43.69s-43.727-19.543-43.727-43.69
		C504.928,130.307,524.508,110.727,548.654,110.727z"/>
	<path id="path3629" d="M637.295,146.858c-7.023,0-13.885,0.675-20.53,1.964c0.104,1.532,0.186,3.073,0.186,4.632
		c0,10.277-2.307,20.014-6.374,28.756c8.325-3.098,17.315-4.817,26.719-4.817c42.339,0,76.67,34.331,76.67,76.671
		c0,30.148-17.416,56.217-42.727,68.74c9.718,4.692,17.23,13.176,20.678,23.531c31.48-18.677,52.584-53.012,52.584-92.271
		C744.5,194.854,696.504,146.858,637.295,146.858z M569.369,218.526c-6.534,2.078-13.492,3.224-20.715,3.224
		c-4.517,0-8.921-0.46-13.192-1.297c-3.487,10.572-5.373,21.87-5.373,33.61c0,15.801,3.422,30.818,9.561,44.32
		c5.325-2.672,11.313-4.188,17.677-4.188c6.198,0,12.046,1.422,17.268,3.965c-8.797-12.472-13.97-27.672-13.97-44.098
		C560.624,241.234,563.797,229.152,569.369,218.526z M592.974,316.615c2.488,5.177,3.891,10.956,3.891,17.084
		c0,6.41-1.553,12.47-4.262,17.824c6.629,3.044,13.627,5.429,20.9,7.077c0.122-11.298,4.917-21.483,12.525-28.719
		C613.847,328.087,602.586,323.43,592.974,316.615z"/>
	<path id="path2983" d="M211.512,11.521c-2.299-0.027-4.52,0.524-6.373,1.879c-6.836,5-3.781,19.097,3.506,17.937
		c1.686-0.269,3.881-2.102,4.61-4.727c1.21-4.357-1.94-6.096-4.358-3.448c-2.373,2.599-4.379,1.105-4.107-3.041
		c0.313-4.767,3.715-7.41,8.446-6.528c3.183,0.594,5.614,1.564,9.956,7.574c19.228,26.617,8.232,41.517,30.373,78.838
		c-11.96-10.086-21.87-14.704-32.891-11.158c-9.733,3.133-14.971,7.671-15.593,17.744c-0.668,10.824,6.988,18.961,16.116,17.142
		c6.364-1.268,13.183-9.685,8.02-14.043c-7.09-5.983-14.651-0.053-12.339,6.121c1.969,5.259-5.407,3.362-7.923-3.216
		c-6.224-16.269,15.45-29.408,33.956-16.251c25.545,21.096,38.385,36.594,56.774,48.929c15.09,10.122,43.413,23.784,59.041,31.689
		c15.902,7.989,33.583,12.268,54.741,13.25c3.033,0.142,2.58,0.487-2.905,2.13c-19.278,5.777-35.077,12.879-51.022,22.993
		c-30.552,19.277-91.437,57.508-132.183,45.404c-30.366-9.021-45.359-23.532-74.072-56.64c-6.217-7.168-4.418-11.604-2.828-20.416
		c1.821-10.094,4.221-15.564,10.828-19.216c6.36-3.514,12.744-6.431,12.474-9.259c-0.465-4.873-9.271-2.727-16.29,4.01
		c-5.645,5.418-9.864,16.845-10.712,28.997c-0.413,5.916-1.096,8.983-1.782,8.078c-0.609-0.803-3.423-2.235-6.218-3.196
		c-23.413-13.307-44.449,9.412-61.54,12.882c-14.56,2.956-27.811,1.071-37.831-13.579c-7.875-12.043-18.84-36.383,0.853-43.313
		l3.661-0.213l-3.719,1.472c-6.742,2.664-5.604,11.328,1.491,11.371c5.066,0.03,7.84-2.97,7.361-8
		c-0.522-5.474-4.144-8.762-9.084-8.291c-0.947,0.092-1.826,0.308-2.673,0.62c-5.931,2.193-11.509,9.126-10.344,20.727
		c3.813,37.973,36.076,54.691,67.525,35.951c12.33-7.348,24.06-9.919,15.07-3.39c-11.065,9.703-8.076,22.271,2.925,30.276
		c5.617,2.96,10.174,3.362,14.256,1.182c9.985-5.337,8.612-19.338-2.014-20.301c-5.255-0.477-9.248,3.316-7.593,7.206
		c1.131,2.657,4.983,3.901,7.089,2.305c0.944-0.715,0.457-1.171-1.588-1.453c-3.495-0.48-4.182-2.921-1.395-5.075
		c4.506-3.48,10.399,4.239,7.768,10.189c-4.58,10.355-19.823,4.948-23.109-7.729c-4.245-11.021,16.233-24.27,33.414-18.188
		c3.683,1.544,8.398,5.429,9.53,6.876c27.574,35.273,51.868,54.21,80.368,61.017c8.567,2.047,16.546,3.058,24.019,3.255
		c-71.446,15.033-140.092-20.449-177.878-26.247c-13.866-2.127-17.247-0.871-22.198,0.33c-25.207,6.108-23.43-18.996-35.583-19.798
		c-2.416-0.158-3.002-0.271-4.61-0.231c-2.067,0.051-3.859,0.998-5.869,2.905C3.743,229,3.244,233.94,5.934,236.876
		c2.598,2.836,4.179,1.07,3.913-4.357c0.254-14.669,14.434-5.296,19.042,3.621c6.566,12.709,18.501,8.952,13.114,12.979
		c-10.097,7.545-25.335,17.263-33.588,29.579c-4.831,7.208-9.024,20.373-8.445,26.537c0.475,5.06,1.76,10.885,8.329,12.455
		c8.29,1.981,17.664-8.119,12.455-13.347c-1.205-1.209-2.976-2.864-5.53-1.918c-4.24,1.571-4.202,6.361-0.639,6.771
		c3.497,0.401,2.851,2.625-0.668,4.833c-4.047,2.539-8.171,1.33-10.228-3.022c-1.383-2.928-1.347-5.239,0.31-12.474
		c1.119-4.885,3.53-11.519,5.327-14.741c6.117-10.969,20.887-25.469,31.497-30.876c4.488-2.288,18.642-7.438,19.738-7.187
		c0.407,0.093-2.256,2.271-5.908,4.843c-8.32,5.855-15.863,17.889-18.15,28.938l-1.491,7.206l2.305-6.179
		c3.917-10.568,8.837-18.176,14.954-23.09c11.11-8.924,19.319-10.885,41.976-6.102c29.124,6.149,114.81,45.357,193.471,12.262
		c32.171-11.033,53.72-35.963,77.327-43.448c-32.321,25.304-46.554,71.641-78.644,99.177c-8.424,7.229-18.658,10.146-24.058,10.44
		c-5.401,0.295-9.905-2.18-11.429-6.761c-1.428-4.295,0.591-10.697,4.378-13.927c2.97-2.532,4.805-6.613,3.642-8.078
		c-2.563-3.222-9.52,1.583-11.913,8.233c-2.375,6.597-1.437,12.029,2.828,16.464c2.108,2.192,3.274,4.115,2.576,4.262
		c-1.751,0.37-9.857-2.082-15.496-8.174c-5.639-6.093-8.939-19.646-2.983-23.652c5.901-3.968,5.956-8.456,2.382-9.742
		c-8.096-2.914-15.742,12.449-6.024,29.481c9.718,17.032,29.302,18.957,50.906,9.336c21.598-9.616,52.113-68.202,82.672-97.413
		c11.92-13.944,22.868-14.64,15.051-3.177c-41.621,73.099-88.336,130.282-160.521,156.978c-19.319,7.145-45.77,1.419-57.278-8.64
		c-9.369-7.605-6.296-21.399,1.491-31.146c-25.841,27.213,2.486,47.624,33.356,46.217c7.748-1.198,4.51-0.027-6.431,3.352
		c-31.683,5.99-86.753-1.876-88.968-42.362c-0.242-8.258,4.582-15.721,10.867-16.795c6.313-1.079,10.026,8.453,3.99,10.247
		c-3.486,1.036-4.812-0.294-1.937-1.956c1.76-1.02,1.838-1.558,0.349-2.576c-2.702-1.85-5.639,1.443-3.661,4.105
		c2.195,2.956,8.193,1.708,9.317-1.937c1.075-3.488-0.912-7.628-3.671-8.823c-16.014-6.938-25.067,15.536-14.692,35.089
		c10.374,19.554,45.581,31.981,73.762,29.114c133.92-13.571,191.161-141.9,221.52-181.752c25.958-16.016,55.976-22.668,81.937-18.17
		c12.065,2.091,12.477,2.089,11.797-0.406c-0.67-2.456-1.53-2.767-16.62-5.54c-16.9-3.105-27.867-3.878-47.07-3.351
		c-7.212,0.196-18.794-0.685-29.52-2.268c-16.668-2.459-18.219-2.878-27.836-7.554c-16.759-8.15-25.957-18.856-24.116-28.087
		c1.188-5.96,4.938-8.149,11.177-6.47c5.735,1.544,7.903,0.684,8.232-3.293c0.271-3.272-4.792-6.594-9.878-6.489
		c-8.123,0.168-15.25,9.381-13.792,17.84c1.049,6.087,2.719,9.084,8.135,14.605c5.481,5.589,4.351,5.455-2.576-0.311
		c-20.409-16.988-26.479-37.72-14.218-48.445c5.636-4.93,11.1-5.509,22.993-2.479c6.55,1.668,9.929,1.985,12.202,1.143
		c4.067-1.508,4.773-4.823,1.803-8.504c-3.782-4.685-8.833-6.232-18.112-5.54c-15.361,1.145-26.434,10.705-27.602,23.806
		c-0.647,7.246-2.053,4.914-2.577-4.261c-0.648-11.332,2.433-23.873,7.36-29.986c6.084-7.546,14.834-11.61,26.731-12.455
		c10.368-0.736,17.311-3.718,18.247-7.806c0.747-3.26-3.519-8.874-7.399-9.763c-1.28-0.293-2.712-0.462-4.204-0.484
		c-0.403-0.006-0.823-0.013-1.238,0c-6.239,0.201-13.694,2.552-19.816,6.392c-18.018,11.302-26.723,29.874-24.058,51.429
		c1.828,14.789,7.416,27.647,18.188,40.522c-15.856-5.421-46.243-25.405-64.91-44.958c-19.901-20.876-22.433-36.997-32.193-70.566
		c-3.7-12.724-11.959-27.342-17.376-30.334C217.545,12.543,214.467,11.555,211.512,11.521L211.512,11.521z"/>
	<path id="path2929" d="M558.225,376.943c-2.069,0.014-3.692,1.02-6.237,3.719c-12.404,13.152-5.733,35.401,13.113,43.777
		c9.769,4.341,17.191,4.919,27.913,2.208c15.603-3.945,27.909-11.851,39.825-25.568c7.093-8.166,4.102-2.655-4.319,7.941
		c-16.073,20.227-39.27,33.434-63.147,35.951c-9.813,1.035-26.271-0.924-38.509-4.591c-4.397-1.317-8.684-2.808-11.68-3.506
		c-1.309,0.903-2.655,1.712-4.049,2.402c0.075,0.055,0.132,0.095,0.213,0.154c3.277,2.397,23.024,9.568,31.013,10.731
		c14.532,2.117,27.947,0.92,44.222-3.951c25.345-7.586,43.424-22.268,58.692-47.69c0.532-0.885-0.705-1.896-3.409-2.789
		l-4.242-1.395l-8.891,9.588c-7.676,8.263-10.545,10.409-20.784,15.535c-10.756,5.385-12.64,5.947-19.913,5.947
		c-6.332,0-8.694-0.523-11.157-2.46c-3.926-3.088-4.044-6.74-0.271-8.175c3.671-1.396,4.616-3.01,2.712-4.591
		c-2.226-1.847-7.264,1.011-7.748,4.397c-0.719,5.024,0.939,8.545,4.882,10.344l3.815,1.743l-5.327-0.736
		c-6.785-0.934-13.427-5.211-15.36-9.879c-2.16-5.215,1.206-10.709,8.136-13.269c5.917-2.186,8.031-4.877,5.481-6.993
		c-3.657-3.035-13.841,3.355-16.058,10.073c-1.02,3.088-1.05,5.171-0.097,7.903c2.078,5.962,0.571,5.251-3.352-1.589
		c-5.922-10.327-4.563-17.718,4.746-25.685c5.708-4.887,6.017-8.885,0.717-9.492C558.837,376.965,558.52,376.941,558.225,376.943
		L558.225,376.943z"/>
	<path id="path2925" d="M353.918,328.932c2.235,5.858-0.81,23.563-6.313,36.712c-0.455,1.086-0.68,0.363-0.524-1.687
		c0.232-3.065-0.569-4.607-5.503-10.58c-3.177-3.846-7.874-9.66-10.438-12.922l-4.662-5.93l1.564-8.425
		c0.861-4.634,1.929-8.697,2.372-9.03s3.145,1.902,6.001,4.966c4.664,5.003,6.489,7.862,9.668,15.151
		c0.536,1.229,0.778-0.288,0.54-3.37c-0.368-4.737-1.303-6.786-6.045-13.255l-5.61-7.65l5.75,3.099
		C347.901,319.884,351.994,323.888,353.918,328.932L353.918,328.932L353.918,328.932z"/>
	<path id="path2921" d="M517.451,336.634c-22.825,6.566-33.745,21.785-36.107,44.145c1.994-1.048,4.06-1.871,6.18-2.479
		c2.71-12.676,9.997-27.474,38.295-20.745C518.255,351.117,518.176,339.451,517.451,336.634z"/>
	<path id="path2919" d="M177.576,406.981c-0.907,2.326-1.341,7.137-0.964,10.691l0.685,6.463l1.4-2.824
		c0.771-1.554,2.914-3.65,4.763-4.659c4.86-2.651,7.299-6.467,6.845-10.707c-0.505-4.712-1.606-4.994-4.973-1.277
		c-1.483,1.639-3.222,3.244-3.863,3.567c-1.858,0.938,2.221-5.116,4.217-6.258c3.444-1.971,0.643-3.101-2.898-1.168
		C180.52,402.047,178.626,404.29,177.576,406.981z"/>
	<path id="path2917" d="M288.866,390.696c-0.496,10.851-0.984,12.655-2.266,8.378c-0.686-2.289-3.025-4.493-8.266-7.789
		c-4.021-2.528-8.074-5.431-9.008-6.45c-1.838-2.006-3.019-13.572-1.529-14.979c1.016-0.959,11.635,7.454,13.028,10.322
		c0.803,1.653,0.914,1.617,1.101-0.362c0.251-2.648-3.399-7.119-8.909-10.915c-3.715-2.559-3.774-2.672-1.334-2.533
		c1.405,0.08,4.884,1.262,7.73,2.626C286.787,372.527,289.42,378.572,288.866,390.696z"/>
	<path id="path2913" d="M211.473,204.365c3.723,0.518,11.584,3.201,10.054,8.253c-1.784,5.893-8.644,0.815-12.266-4.711
		c-29.041-5.094-33.907,29.251-5.835,45.322C171.861,239.16,173.47,196.466,211.473,204.365z"/>
	<path id="path2909" d="M218.975,373.037c-3.884-2.368-6.881-8.326-8.159-16.22c-0.415-2.56-1.019-5.931-1.343-7.49
		c-0.557-2.678-0.421-2.636,2.423,0.744c1.88,2.234,4.949,4.068,8.162,4.877c2.833,0.714,6.563,2.408,8.289,3.767
		c3.202,2.519,6.65,11.142,5.082,12.71c-0.477,0.477-4.061-0.809-7.966-2.857c-6.283-3.294-6.907-3.433-5.424-1.199
		c0.921,1.388,3.971,3.737,6.777,5.221l5.101,2.697l-4.633-0.005C224.735,375.28,220.996,374.268,218.975,373.037L218.975,373.037
		L218.975,373.037z"/>
	<path id="path2907" d="M216.138,412.231c-1.444-9.674-6.712-14.968-15.078-15.149l-4.149-0.09l5.028,2.601
		c2.765,1.43,5.534,3.588,6.152,4.794c0.908,1.771-0.178,1.479-5.64-1.524c-7.585-4.169-8.687-3.455-6.339,4.107
		c1.452,4.674,4.554,7.122,11.601,9.153c2.734,0.788,5.991,2.49,7.238,3.783C217.58,422.63,217.636,422.27,216.138,412.231
		L216.138,412.231z"/>
	<path id="path2905" d="M422.749,333.03c-5.948-0.008-11.463,1.282-15.516,3.933c-12.373,8.091-11.48,22.014,1.472,22.954
		c6.287,0.104,12.77-4.545,8.601-11.196c-3.682-5.154-10.401-2.761-8.252,3.08c0.698,1.896,3.339,1.98,3.758,0.483
		c0.672-2.399,5.639-1.169,3.216,2.771c-3.955,6.43-15.692,2.93-15.128-4.843c0.445-6.139,5.976-11.232,14.47-12.959
		c6.766-1.375,9.577-1.082,17.607,1.898c7.753,2.878,11.226,5.63,18.401,14.605c4.863,6.083,11.46,15.5,14.373,20.987
		c2.715,5.112,2.979,6.321,6.768,12.379c1.188-0.974,2.38-1.948,3.576-2.916c-6.944-18.383-13.015-28.36-29.772-42.595
		C440.211,336.421,430.396,333.041,422.749,333.03z"/>
	<path id="path2903" d="M477.994,281.419c2.558,3.038,1.988,6.732,0.142,8.754c-1.427,1.562-3.753,3.245-7.755,3.316
		c-9.271,0.166-20.005-10.783-21.061-24.119c-1.803-22.794,13.751-50.054,39.27-63.942c9.845-5.358,8.743-2.651-1.85,4.544
		c-12.491,8.485-22.054,18.655-26.706,28.405c-4.631,9.702-5.989,15.934-6.024,27.643c-0.023,7.791,0.49,10.58,2.728,14.823
		c3.48,6.599,9.187,10.563,15.206,10.563c9.392-0.201,6.324-12.084,1.073-8.999c-1.529,0.899,0.291,0.488,1.682,1.779
		c1.39,1.29-0.64,2.724-2.229,2.477c-2.793-0.437-3.01-3.249-1.146-5.396C472.724,279.651,476.566,279.713,477.994,281.419z"/>
	<path id="path2901" d="M300.157,205.676c-3.795-1.651-29.394-6.555-30.141-5.772c-0.152,0.16,1.216,0.971,3.042,1.801
		c4.314,1.964,7.828,7.729,11.177,18.341c1.403,4.445,3.651,9.133,4.996,10.418c3.043,2.906,11.637,5.754,16.562,5.486l3.71-0.2
		l-3.75-8.022c-2.063-4.413-5.387-9.608-7.386-11.546c-2.979-2.886-3.196-3.417-1.203-2.938c4.212,1.012,9.565,7.057,13,14.678
		c1.822,4.043,3.489,6.934,3.704,6.423c0.772-1.828-1.205-14.815-2.822-18.538C309.006,211.108,305.812,208.138,300.157,205.676z"/>
	<path id="path2899" d="M402.87,250.775c-3.882-2.586-7.091-7.694-8.741-13.918c-0.652-2.457,0.09-2.017,4.334,2.574
		c4.944,5.348,10.067,8.883,11.214,7.736c0.305-0.305-0.878-1.68-2.627-3.056c-3.305-2.6-9.897-10.742-9.955-12.295
		c-0.059-1.57,11.829-0.948,15.202,0.796c1.793,0.928,4.699,4.263,6.46,7.412c4.535,8.114,5.886,9.614,10.439,11.59
		c3.877,1.683,3.524,1.752-9.132,1.797C408.321,253.454,406.464,253.169,402.87,250.775z"/>
	<path id="path2897" d="M429.309,153.634c-5-7.765-12.455-11.615-35.538-18.358l-9.524-2.782l4.392,3.016
		c5.586,3.836,7.837,8.056,9.945,18.64c2.71,13.601,5.18,18.618,11.248,22.853c2.887,2.015,8.023,4.343,11.415,5.175l6.167,1.512
		l-0.266-2.283c-0.43-3.691-6.338-19.257-8.646-22.776c-1.169-1.782-3.284-4.293-4.7-5.579l-2.576-2.339l3.751,2.011
		c7.359,3.945,12.655,12.231,16.86,26.382l1.402,4.718l0.33-4.371C434.261,170.313,432.264,158.221,429.309,153.634L429.309,153.634
		L429.309,153.634z"/>
	<path id="path2895" d="M524.46,0.015c-1.209,0.025-2.418,0.082-3.622,0.174c-16.588,2.521-31.271,8.851-44.397,19.39
		c-43.678,36.183-36.882,89.835-3.118,128.348c3.362,2.608,6.531,4.746,7.031,4.746c2.144,0,0.638-5.101-2.188-7.438
		c-15.765-14.654-25.257-33.024-27.177-52.919c4.22-21.076,16.378-42.773,26.188-43.448c4.632-0.319,6.589-0.439,8.193,2.324
		c1.038,1.788,0.899,2.728-0.755,4.746c-2.69,3.281-1.356,6.352,2.072,4.765c3.365-1.557,3.813-7.478,0.853-11.196
		c-2.367-2.974-2.765-3.117-7.612-2.557c-2.812,0.325-5.06,0.409-4.998,0.174c0.063-0.234,2.793-1.388,6.063-2.557
		c10.669-3.814,20.037-0.896,21.036,6.547c0.433,3.229-0.063,4.723-2.983,9.182c-5.061,7.724-4,11.536,2.188,7.942
		c2.051-1.19,3.304-3.209,4.281-6.896c1.825-6.88,0.446-12.468-3.874-15.787c-4.707-3.616-4.181-4.271,1.472-1.801
		c11.307,4.938,15.207,11.445,13.153,21.985c-1.962,10.068-1.872,12.13,0.522,12.765c7.207,1.912,10.193-11.29,4.998-22.083
		c-3.776-7.845-9.135-12.08-18.46-14.586c-33.49-5.045-42.396,14.589-52.668,40.678c-0.3-13.102,3.434-25.699,9.239-37.249
		c16.194-28.197,50.004-44.659,73.84-40.949c16.445,2.56,28.589,13.9,32.592,27.049c3.507,11.521,1.884,19.581-12.706,24.985
		c-9.637,3.57-17.456,17.125-7.09,21.638c11.627,2.309,19.252-4.617,24.947-14.217C589.812,29.168,561.931-0.765,524.46,0.015
		L524.46,0.015z"/>
	<path id="path2889" d="M436.75,59.47c-0.512-0.438-2.571-2.71-4.577-5.048c-4.237-4.939-10.863-8.12-17.49-8.396
		c-3.839-0.16-26.006,5.589-26.145,6.78c-0.031,0.273,1.359,0.353,3.091,0.177c3.797-0.385,8.857,2.457,16.397,9.206
		c7.967,7.131,11.345,9.2,15.948,9.767c4.77,0.587,14.853-2.21,13.746-3.814c-1.597-2.316-14.467-10.782-18.822-12.382
		c-5.423-1.992-4.804-2.921,1.29-1.938c2.764,0.445,7.04,2.57,12.229,6.075c4.39,2.964,8.253,5.486,8.586,5.605
		C441.717,65.755,438.101,60.629,436.75,59.47L436.75,59.47L436.75,59.47z"/>
	<path id="path2955" d="M244.479,234.964c3.106-0.523,7.206-2.481,10.149,2.156c2.081,3.278-6.189,4.206-10.502,0.864
		c-24.495,3.268-20.048,27.664,6.747,25.336C221.553,270.939,212.108,238.293,244.479,234.964z"/>
	<g id="g2961" transform="matrix(1.19425 0 0 1.19425 -286.523 -219.642)">
		<path id="path2963" d="M530.976,333.945c-6.934,0-12.559,5.625-12.559,12.559c0,6.933,5.625,12.559,12.559,12.559
			c6.933,0,12.559-5.625,12.559-12.559C543.535,339.57,537.91,333.945,530.976,333.945z M530.976,336.871
			c5.316,0,9.632,4.316,9.632,9.633c0,5.316-4.316,9.632-9.632,9.632c-5.317,0-9.633-4.316-9.633-9.632
			C521.344,341.187,525.66,336.871,530.976,336.871z"/>
		<path id="path2965" d="M534.077,346.505c0,1.715-1.39,3.104-3.105,3.104c-1.714,0-3.104-1.389-3.104-3.104
			c0-1.714,1.39-3.104,3.104-3.104C532.687,343.401,534.077,344.791,534.077,346.505z"/>
	</g>
	<path id="path2967" d="M112.133,261.503c-0.413,0.268-2.462,1.166-4.554,1.997c-4.417,1.755-7.868,6.095-9.109,11.453
		c-0.719,3.104,0.205,23.372,1.09,23.904c0.203,0.121,0.479-0.995,0.616-2.482c0.298-3.261,3.248-6.431,9.556-10.27
		c6.666-4.057,8.766-6.112,9.914-9.703c1.189-3.721,0.63-13.004-0.763-12.656c-2.011,0.503-10.455,8.128-12.35,11.152
		c-2.359,3.766-2.97,2.93-1.274-1.743c0.769-2.118,3.051-4.894,6.525-7.937c2.938-2.573,5.458-4.869,5.601-5.102
		C117.688,259.619,113.225,260.797,112.133,261.503L112.133,261.503z"/>
	<path id="path2986" d="M184.959,289.435c2.01,4.921-0.728,19.792-5.677,30.835c-0.409,0.913-0.611,0.305-0.471-1.416
		c0.209-2.574-0.512-3.87-4.948-8.887c-2.856-3.229-7.08-8.113-9.386-10.853l-4.192-4.98l1.407-7.076
		c0.774-3.892,1.734-7.305,2.133-7.584c0.399-0.28,2.827,1.597,5.396,4.17c4.194,4.202,5.835,6.604,8.693,12.726
		c0.482,1.032,0.7-0.241,0.485-2.83c-0.33-3.979-1.17-5.7-5.435-11.133l-5.044-6.426l5.17,2.603
		C179.549,281.836,183.229,285.2,184.959,289.435L184.959,289.435L184.959,289.435z"/>
	<path id="path3006" d="M444.354,391.68c-4.764,2.129-19.616,0.419-30.797-3.545c-0.923-0.328-0.333-0.548,1.377-0.514
		c2.558,0.051,3.803-0.687,8.536-5.063c3.048-2.817,7.662-6.99,10.253-9.271l4.712-4.148l7.072,0.91
		c3.89,0.5,7.315,1.199,7.613,1.553c0.297,0.353-1.435,2.7-3.848,5.216c-3.94,4.107-6.232,5.757-12.142,8.735
		c-0.996,0.502,0.274,0.634,2.825,0.292c3.919-0.524,5.578-1.396,10.732-5.637l6.098-5.016l-2.309,4.921
		C451.595,386.262,448.456,389.848,444.354,391.68L444.354,391.68L444.354,391.68z"/>
	<path id="path3008" d="M441.046,313.333c3.551-2.687,16.226-4.122,26.282-2.977c0.83,0.094,0.382,0.391-1.046,0.691
		c-2.136,0.449-3.028,1.302-6.122,5.851c-1.992,2.928-5.024,7.283-6.739,9.679l-3.118,4.354l-6.055,0.604
		c-3.329,0.333-6.312,0.411-6.627,0.175c-0.314-0.237,0.673-2.521,2.195-5.076c2.485-4.173,4.073-5.984,8.412-9.597
		c0.731-0.609-0.351-0.474-2.404,0.3c-3.157,1.19-4.368,2.234-7.838,6.75l-4.104,5.343l0.973-4.534
		C436.07,319.229,437.989,315.644,441.046,313.333L441.046,313.333L441.046,313.333z"/>
	<path id="path3010" d="M417.127,314.858c0.591-6.339,0.927-7.382,1.559-4.843c0.338,1.359,1.646,2.715,4.623,4.79
		c2.284,1.593,4.576,3.404,5.095,4.026c1.021,1.226,1.392,8.031,0.479,8.813c-0.621,0.533-6.604-4.688-7.341-6.405
		c-0.425-0.99-0.49-0.973-0.654,0.182c-0.221,1.544,1.792,4.263,4.913,6.638c2.104,1.602,2.136,1.669,0.71,1.521
		c-0.82-0.086-2.824-0.874-4.453-1.752C417.839,325.553,416.466,321.941,417.127,314.858z"/>
	<path id="path3036" d="M118.673,166.346c-3.126-6.465-8.304-10.652-24.684-19.961l-6.758-3.841l3,2.993
		c3.816,3.809,5.175,7.23,6.002,15.114c1.063,10.132,2.527,14.159,6.668,18.344c1.97,1.99,5.56,4.646,7.977,5.901l4.396,2.282
		l-0.041-1.663c-0.065-2.689-3.33-14.838-4.776-17.776c-0.733-1.488-2.107-3.677-3.053-4.863l-1.721-2.159l2.6,2.159
		c5.102,4.234,8.408,11.126,10.525,21.94l0.706,3.605l0.534-3.02C121.164,179.093,120.52,170.167,118.673,166.346L118.673,166.346
		L118.673,166.346z"/>
	<path id="path3046" d="M274.369,95.416c3.468-1.725,14.616-1.065,23.115,1.366c0.702,0.201,0.271,0.383-1.007,0.425
		c-1.91,0.063-2.809,0.644-6.165,3.992c-2.161,2.156-5.435,5.352-7.276,7.102l-3.348,3.183l-5.313-0.383
		c-2.921-0.21-5.505-0.583-5.741-0.826c-0.236-0.244,0.962-2.009,2.661-3.921c2.774-3.123,4.418-4.404,8.707-6.788
		c0.723-0.402-0.23-0.447-2.119-0.102c-2.902,0.532-4.105,1.227-7.78,4.493l-4.347,3.864l1.524-3.647
		C269.185,99.615,271.383,96.9,274.369,95.416L274.369,95.416z"/>
	<path id="path3048" d="M285.772,144.917c-0.333,0.362-2.089,1.748-3.904,3.079c-3.833,2.811-6.08,7.88-5.931,13.379
		c0.086,3.186,6.086,22.566,7.076,22.858c0.227,0.066,0.213-1.084-0.03-2.558c-0.532-3.23,1.523-7.041,6.661-12.346
		c5.429-5.604,6.942-8.123,7.149-11.888c0.214-3.899-2.666-12.742-3.926-12.055c-1.82,0.992-8.071,10.499-9.143,13.903
		c-1.335,4.238-2.137,3.583-1.672-1.366c0.211-2.244,1.72-5.505,4.315-9.324c2.195-3.23,4.056-6.087,4.135-6.348
		C290.673,141.693,286.651,143.958,285.772,144.917L285.772,144.917z"/>
	<path id="path3050" d="M261.827,122.078c-0.442,0.128-2.468,0.367-4.503,0.532c-4.298,0.347-8.807,3.367-11.9,7.97
		c-1.792,2.667-8.893,21.7-8.374,22.448c0.119,0.171,0.778-0.783,1.466-2.12c1.508-2.933,5.153-5.015,11.807-6.745
		c7.031-1.828,9.547-3.124,11.88-6.116c2.417-3.101,5.557-11.858,4.282-11.938c-1.842-0.116-11.713,4.501-14.438,6.753
		c-3.392,2.804-3.568,1.854-0.368-1.982c1.451-1.739,4.396-3.648,8.42-5.461c3.404-1.533,6.358-2.929,6.564-3.104
		C267.106,121.94,262.995,121.74,261.827,122.078L261.827,122.078L261.827,122.078z"/>
	<path id="path3775" fill="#FF7F00" d="M627.596,131.878c0,1.099-0.891,1.989-1.988,1.989c-1.099,0-1.989-0.891-1.989-1.989
		c0-1.098,0.891-1.989,1.989-1.989C626.706,129.889,627.596,130.78,627.596,131.878z"/>
	<path id="path3813" fill="#FF7F00" d="M785.731,223.126c-18.057,0-32.697,14.642-32.697,32.697
		c0,18.057,14.641,32.697,32.697,32.697c18.056,0,32.696-14.641,32.696-32.697C818.428,237.767,803.787,223.126,785.731,223.126z
		 M785.731,237.441c10.156,0,18.382,8.226,18.382,18.382c0,10.157-8.226,18.383-18.382,18.383c-10.157,0-18.402-8.226-18.402-18.383
		C767.329,245.667,775.574,237.441,785.731,237.441z"/>
	<path id="path3948" d="M948.456,348.146c4.505-4.935,9.748-6.337,24.999-6.685l6.292-0.144l-3.23,1.402
		c-4.111,1.783-6.276,4.563-9.568,12.279c-4.229,9.914-6.681,13.264-11.158,15.253c-2.13,0.946-5.682,1.662-7.892,1.59l-4.02-0.13
		l0.596-1.704c0.963-2.756,7.502-13.514,9.569-15.741c1.046-1.128,2.804-2.619,3.906-3.313l2.004-1.262l-2.653,0.762
		c-5.203,1.495-9.986,6.771-15.226,16.795l-1.747,3.342l0.633-3.439C942.283,359.965,945.794,351.062,948.456,348.146
		L948.456,348.146L948.456,348.146z"/>
	<path id="path3956" fill="#FF7F00" d="M792.062,327.445c-18.664,0-33.796,15.133-33.796,33.796
		c0,18.664,15.132,33.797,33.796,33.797s33.796-15.133,33.796-33.797C825.858,342.578,810.726,327.445,792.062,327.445z
		 M792.062,337.518c13.101,0,23.724,10.623,23.724,23.723c0,13.102-10.623,23.704-23.724,23.704s-23.724-10.603-23.724-23.704
		C768.339,348.141,778.962,337.518,792.062,337.518z"/>
	<path id="path3958" d="M792.062,340.755c-11.306,0-20.486,9.181-20.486,20.486c0,11.307,9.181,20.467,20.486,20.467
		s20.467-9.16,20.467-20.467C812.529,349.935,803.368,340.755,792.062,340.755z M792.062,350.184
		c6.102,0,11.037,4.955,11.037,11.057c0,6.103-4.936,11.038-11.037,11.038s-11.058-4.936-11.058-11.038
		C781.005,355.139,785.961,350.184,792.062,350.184z"/>
	<path id="path3960" d="M934.221,391.733c-7.793,2.811-11.011,7.718-15.341,23.396l-1.787,6.469l2.708-2.821
		c3.445-3.589,7.74-4.787,18.976-5.292c14.436-0.649,19.571-1.928,23.387-5.82c1.814-1.852,3.679-5.263,4.142-7.581l0.842-4.216
		l-2.448-0.025c-3.958-0.039-20.115,2.687-23.642,3.989c-1.786,0.66-4.241,1.921-5.456,2.802l-2.208,1.602l1.698-2.463
		c3.333-4.831,11.655-7.801,26.495-9.456l4.947-0.552l-4.796-0.64C951.715,389.787,938.826,390.073,934.221,391.733L934.221,391.733
		L934.221,391.733z"/>
	<g id="g3962" transform="matrix(0.755636 0 0 0.755636 991.531 86.8731)">
		<path id="path3964" fill="#FF7F00" d="M283.991,352.553c-8.649,0-15.653,7.003-15.653,15.653s7.005,15.689,15.653,15.689
			c8.65,0,15.653-7.04,15.653-15.689S292.641,352.553,283.991,352.553z M283.991,355.572c6.987,0,12.634,5.648,12.634,12.634
			c0,6.985-5.648,12.672-12.634,12.672c-6.985,0-12.634-5.686-12.634-12.672C271.357,361.22,277.006,355.572,283.991,355.572z"/>
		<path id="path3966" fill="#FF7F00" d="M289.369,368.222c0,2.97-2.406,5.376-5.376,5.376c-2.969,0-5.376-2.406-5.376-5.376
			c0-2.969,2.408-5.376,5.376-5.376C286.962,362.846,289.369,365.254,289.369,368.222z"/>
	</g>
	<path id="path3982" d="M1088.902,390.305c-3.017,2.734-6.66,14.113-7.555,23.594c0.697-1.414,4.437-4.13,7.067-5.297
		c5.139-1.71,6.851-2.389,11.046-4.507c1.27-0.569,3.322-2.585,3.701-3.823c0.348-1.136,1.043-3.406,1.043-3.406
		c0.918-2.998,1.549-5.727,1.401-6.063c-4.724-0.089-9.007,2.685-12.521,5.587c-0.04-3.18,2.529-5.067,5.791-6.764l5.441-2.716
		l-4.146-0.006C1094.993,386.897,1091.499,387.952,1088.902,390.305L1088.902,390.305L1088.902,390.305z"/>
	<path id="path3984" d="M1138.424,388.693c6.383,3.696,9.075,8.929,12.832,24.945l1.55,6.608l-2.245-3.109
		c-2.857-3.955-6.371-5.646-15.521-7.467c-11.759-2.34-15.957-4.208-19.12-8.507c-1.505-2.045-3.071-5.64-3.483-7.987l-0.747-4.268
		l1.991,0.263c3.222,0.427,16.411,5.023,19.301,6.727c1.463,0.863,3.479,2.398,4.481,3.413l1.821,1.844l-1.42-2.636
		c-2.783-5.17-9.601-9.087-21.702-12.47l-4.035-1.127l3.895-0.069C1124.158,384.711,1134.651,386.509,1138.424,388.693
		L1138.424,388.693L1138.424,388.693z"/>
	<g id="g3994" transform="matrix(0.994312 0 0 0.994312 541.115 69.1222)">
		<path id="path3996" fill="#FF7F00" d="M529.292,286.318c-6.934,0-12.559,5.625-12.559,12.559s5.625,12.559,12.559,12.559
			c6.934,0,12.559-5.625,12.559-12.559S536.226,286.318,529.292,286.318z M529.292,289.243c5.316,0,9.633,4.317,9.633,9.633
			s-4.317,9.633-9.633,9.633c-5.315,0-9.632-4.317-9.632-9.633S523.977,289.243,529.292,289.243z"/>
		<path id="path3998" fill="#FF7F00" d="M531.523,298.877c0,1.235-1.001,2.234-2.234,2.234s-2.234-1-2.234-2.234
			c0-1.234,1.001-2.234,2.234-2.234S531.523,297.644,531.523,298.877z"/>
	</g>
	<g id="g4012" transform="matrix(1.15522 0 0 1.15522 352.251 -446.801)">
		<path id="path4014" fill="#FF7F00" d="M288.569,482.036c-8.649,0-15.652,7.004-15.652,15.653c0,8.65,7.004,15.69,15.652,15.69
			c8.65,0,15.653-7.04,15.653-15.69C304.222,489.039,297.218,482.036,288.569,482.036z M288.569,485.054
			c6.987,0,12.635,5.648,12.635,12.634c0,6.986-5.648,12.671-12.635,12.671c-6.986,0-12.634-5.685-12.634-12.671
			C275.935,490.703,281.583,485.054,288.569,485.054z"/>
		<path id="path4016" fill="#FF7F00" d="M293.088,497.705c0,2.495-2.023,4.518-4.518,4.518c-2.495,0-4.518-2.023-4.518-4.518
			c0-2.495,2.022-4.518,4.518-4.518C291.065,493.187,293.088,495.21,293.088,497.705z"/>
	</g>
	<g id="g4018" transform="matrix(-1.3988 1.23895 -1.23895 -1.3988 2892.09 514.403)">
		<path id="path4020" fill="#FF7F00" d="M720.249,848.146c-7.56,0-13.693,6.133-13.693,13.693c0,7.56,6.133,13.693,13.693,13.693
			c7.56,0,13.693-6.133,13.693-13.693C733.942,854.279,727.81,848.146,720.249,848.146z M720.249,851.337
			c5.797,0,10.503,4.706,10.503,10.503c0,5.796-4.706,10.503-10.503,10.503c-5.796,0-10.503-4.706-10.503-10.503
			S714.453,851.336,720.249,851.337z"/>
		<path id="path4022" fill="#FF7F00" d="M726.138,861.841c0,3.254-2.638,5.893-5.893,5.893c-3.254,0-5.892-2.638-5.892-5.893
			s2.638-5.892,5.892-5.893C723.5,855.948,726.138,858.586,726.138,861.841z"/>
	</g>
	<path id="path4034" d="M778.256,154.065c4.304-1.142,16.578,2.327,25.453,7.193c0.733,0.402,0.205,0.508-1.229,0.245
		c-2.147-0.393-3.296,0.059-7.881,3.098c-2.952,1.956-7.408,4.84-9.902,6.407l-4.534,2.85l-5.832-1.732
		c-3.208-0.953-5.998-2.01-6.2-2.348s1.577-2.078,3.953-3.867c3.88-2.921,6.036-3.997,11.419-5.698
		c0.908-0.287-0.145-0.571-2.339-0.632c-3.373-0.094-4.89,0.414-9.81,3.28l-5.82,3.392l2.616-3.829
		C771.418,157.639,774.551,155.048,778.256,154.065L778.256,154.065L778.256,154.065z"/>
	<path id="path4036" d="M748.28,182.637c-2.614,2.29-5.462,11.483-5.905,19.063c-0.037,0.626,0.26,0.332,0.691-0.687
		c0.645-1.523,1.443-2.077,5.477-3.795c2.597-1.106,6.469-2.804,8.604-3.772l3.884-1.761l1.295-4.401
		c0.713-2.421,1.176-4.616,1.03-4.879s-2.095,0.182-4.332,0.987c-3.653,1.316-5.308,2.264-8.765,5.021
		c-0.583,0.464-0.33-0.319,0.563-1.741c1.371-2.186,2.364-2.951,6.423-4.951l4.802-2.365l-3.737,0.151
		C753.639,179.696,750.531,180.667,748.28,182.637L748.28,182.637L748.28,182.637z"/>
	<path id="path4050" d="M1023.408,317.015c-4.075,0.723-28.115,10.794-28.305,11.859c-0.039,0.217,1.55,0.136,3.53-0.182
		c4.68-0.751,10.796,2.11,19.455,9.1c3.627,2.928,8.092,5.59,9.923,5.916c4.143,0.739,12.878-1.641,16.834-4.587l2.979-2.219
		l-7.562-4.61c-4.158-2.536-9.801-5.026-12.539-5.535c-4.077-0.757-4.552-1.079-2.626-1.783c4.068-1.485,11.872,0.59,18.948,5.04
		c3.754,2.361,6.74,3.848,6.638,3.303c-0.368-1.95-9.197-11.677-12.604-13.884C1033.784,316.648,1029.48,315.939,1023.408,317.015z"
		/>
	<path id="path4063" d="M873.117,279.696c-7.254-1.339-12.7,0.89-25.963,10.622l-5.473,4.017l3.728-0.904
		c4.741-1.15,8.51-0.151,16.649,4.41c10.458,5.861,14.863,7.17,20.062,5.957c2.472-0.577,5.999-2.29,7.837-3.808l3.342-2.759
		l-1.686-1.094c-2.725-1.769-15.737-6.845-19.041-7.428c-1.673-0.295-4.203-0.438-5.624-0.318l-2.582,0.219l2.791-1.082
		c5.476-2.121,13.203-0.668,24.6,4.624l3.799,1.765l-2.915-2.582C886.549,285.938,877.403,280.486,873.117,279.696L873.117,279.696
		L873.117,279.696z"/>
	<g id="g4067" transform="matrix(0.994312 0 0 0.994312 359.989 33.4068)">
		<path id="path4069" d="M529.292,286.317c-6.934,0-12.559,5.625-12.559,12.559s5.625,12.559,12.559,12.559
			c6.935,0,12.559-5.625,12.559-12.559S536.227,286.317,529.292,286.317z M529.292,289.244c5.316,0,9.633,4.317,9.633,9.632
			c0,5.316-4.317,9.633-9.633,9.633c-5.316,0-9.632-4.317-9.632-9.633C519.66,293.56,523.975,289.244,529.292,289.244z"/>
		<path id="path4071" d="M533.299,298.878c0,2.215-1.795,4.01-4.01,4.01s-4.01-1.795-4.01-4.01c0-2.215,1.795-4.01,4.01-4.01
			S533.299,296.663,533.299,298.878z"/>
	</g>
	<path id="path4083" d="M929.138,304.425c5.758,3.333,8.185,8.052,11.573,22.496l1.397,5.96l-2.025-2.804
		c-2.576-3.567-5.745-5.091-13.997-6.733c-10.604-2.111-14.391-3.796-17.243-7.673c-1.357-1.844-2.771-5.085-3.142-7.202
		l-0.674-3.85l1.796,0.237c2.905,0.384,14.8,4.53,17.405,6.066c1.32,0.778,3.139,2.163,4.042,3.077l1.643,1.663l-1.28-2.377
		c-2.511-4.663-8.658-8.195-19.572-11.245l-3.639-1.018l3.512-0.062C916.273,300.833,925.737,302.456,929.138,304.425
		L929.138,304.425L929.138,304.425z"/>
	<path id="path3625" fill="#FF7F00" d="M548.654,115.693c-20.839,0-37.761,16.922-37.761,37.761s16.922,37.724,37.761,37.724
		s37.724-16.885,37.724-37.724S569.493,115.693,548.654,115.693z M548.654,133.072c11.246,0,20.345,9.135,20.345,20.381
		c0,11.247-9.099,20.345-20.345,20.345s-20.381-9.098-20.381-20.345C528.273,142.208,537.408,133.072,548.654,133.072z"/>
</g>
</svg>
