<?xml version="1.0"?><svg width="1280" height="1024" xmlns="http://www.w3.org/2000/svg">
 <title>monogram leaf swirl</title>
 <metadata id="metadata7">image/svg+xml</metadata>
 <g>
  <title>Layer 1</title>
  <path fill="#000000" d="m760.786865,287.233765c-21.716614,0.165161 -42.580444,18.716064 -46.430786,45.384796c-2.554382,17.692261 -0.105469,29.901459 9.123413,45.927155c3.561523,6.436646 12.622803,21.325226 20.358276,28.43573c0.910339,0.836792 0.882141,3.15033 -1.046021,2.460052c-13.482544,-3.554169 -28.678345,-2.875366 -46.353271,0.542358l3.486633,2.09201c43.268188,-6.49057 74.137024,16.446045 91.796265,44.706818c1.320129,-0.097137 2.664734,-0.154968 4.009644,-0.154968c0.449524,0 0.890442,0.008026 1.336548,0.019348c-0.009521,-0.309937 -0.019348,-0.617523 -0.019348,-0.929779c0,-1.663513 0.144592,-3.292084 0.406799,-4.881348c-6.653809,-9.242126 -14.625427,-18.194 -23.806213,-26.382446c-11.811401,-10.534729 -34.99176,-47.962891 -22.721436,-58.227356c12.37323,-10.350555 32.557495,1.20694 27.273499,15.844971c-2.391113,6.623901 -10.305481,7.51236 -8.154907,2.324432c2.524536,-6.090118 -4.193909,-11.776947 -11.486633,-6.043549c-5.311829,4.176056 1.199219,12.826752 7.515686,14.314697c9.059204,2.134094 17.497559,-5.764099 16.716614,-16.581024c-0.88855,-12.307648 -20.729309,-21.983856 -32.038574,-13.171875c-11.309326,8.811981 -5.069031,26.918152 1.104065,40.503479c2.991211,6.582672 0.144531,6.249695 -3.970886,2.033875c-11.211548,-11.484955 -16.063293,-18.053894 -22.585876,-30.973236c-4.764099,-9.436371 -5.19635,-18.731079 -3.196106,-23.573761c3.188416,-7.719116 9.015137,-9.567169 13.036255,-4.145233c3.911743,5.274414 6.940125,6.04892 8.619812,2.266327c1.963074,-4.420563 -4.924805,-11.216949 -10.595581,-10.459991c-8.413391,1.123108 -13.325134,5.371185 -14.430908,12.532623l-1.084778,6.934601l-1.220337,-8.891022c-1.576477,-11.344452 2.294373,-23.980377 8.929749,-29.21051c7.412842,-5.842804 17.781555,-2.921204 25.045898,7.07019c6.203613,8.53241 11.485352,10.718964 13.733582,5.656158c3.225586,-7.263611 -11.677307,-20.768097 -23.496216,-21.288055c-5.433105,-0.239075 -8.800354,0.656036 -12.765076,3.428558c-8.65332,6.051025 -8.182922,3.315247 1.045959,-6.101685c13.934265,-14.218079 26.438782,-15.395111 43.486511,-4.029022c10.454834,6.97052 17.039551,5.648346 15.612549,-3.157379c-0.085571,-0.527924 -0.191895,-1.036163 -0.329346,-1.510895c-0.961365,-3.323242 -3.314331,-5.47641 -8.813477,-8.348633c-5.862122,-3.061768 -12.011292,-4.462677 -18.09198,-4.416443l0,0.000031zm171.059814,169.452087c-1.288452,0.017273 -2.622864,0.237457 -3.970886,0.658569c-2.740601,1.106689 -5.301758,3.108856 -7.128357,5.404358c-4.848328,6.092987 -6.196899,22.114807 -5.016907,35.312225c3.113464,34.821014 5.636841,34.131866 -5.694885,52.900482c-12.501465,20.705994 -31.064514,19.455994 -59.796387,17.704529c-8.914063,-0.543396 -16.336121,-2.19574 -28.338867,-2.382568c-12.775208,-0.742249 -21.881714,1.703552 -31.961121,4.280884c2.780884,-2.066528 5.369263,-4.260498 7.786926,-6.566589c-0.666321,0.024536 -1.322937,0.038757 -1.995178,0.038757c-3.449097,0 -6.82373,-0.32782 -10.09198,-0.949158c-6.389771,5.713013 -14.237732,10.622925 -23.767456,14.043518c1.125366,2.064209 1.999634,4.274536 2.595642,6.605347c4.284607,-1.431641 8.345764,-3.099548 12.164612,-4.997559c0.007751,-0.003723 0.011658,-0.015564 0.019348,-0.019348c14.454407,-2.72406 30.168274,-4.399292 45.656006,-1.530273c14.307251,2.184448 25.491089,13.246643 33.975586,24.348572c2.510132,3.633972 4.723022,8.750549 5.656189,12.920044c0.499207,2.230408 1.153809,6.13562 1.026611,7.72876c-0.297729,3.730408 -3.219788,4.515991 -5.656128,5.985474c-3.028809,1.826843 -6.522705,3.883972 -8.406738,6.450317c-2.650635,3.610657 -1.992004,7.287231 1.084717,9.433411c3.585571,2.300659 11.071472,2.371033 13.075012,-0.213074c1.541809,-1.988525 -0.331909,-4.194397 -6.353516,-2.847473c-6.286682,1.406311 -5.002258,-3.555786 -2.556885,-6.624634c1.794067,-2.251465 4.700562,-3.808228 6.81842,-4.707031c5.621216,-2.38562 5.637024,-4.319153 4.84259,-7.47699c-0.50769,-2.017822 -0.087341,-2.065613 1.259033,-0.348633c11.295593,14.429565 20.983765,23.049622 29.675415,25.258972c8.691772,2.209351 12.040039,2.243835 16.716675,1.743347c4.676636,-0.500488 8.56958,-3.289856 9.065308,-8.890991c0.575073,-6.497253 -11.864258,-11.539246 -18.033813,-8.619873c-1.263733,0.598022 -1.837952,2.830017 -0.38739,4.803894c2.408325,3.276855 6.647217,2.600708 6.15979,-0.38739c-0.478455,-2.932617 2.544617,-1.822449 5.346191,0.77478c3.22168,2.986694 2.231873,5.658325 -1.142822,7.941833c-2.270508,1.536377 -4.315613,1.814697 -11.138,1.433411c-8.957825,-1.490845 -14.166748,-4.650391 -18.789246,-8.542297c-5.169861,-4.352844 -9.433228,-9.735779 -13.772339,-16.929749c-3.355652,-5.563416 -6.358887,-11.683838 -12.028992,-21.462341c-0.449097,-0.774475 -2.711365,-4.017639 -4.222778,-5.539978c-2.130798,-2.14624 -4.910645,-4.693359 -7.690002,-7.128296c0.497986,0.294861 0.99585,0.581543 1.491516,0.891052c38.94342,17.930542 20.878296,17.24054 100.667847,48.057922c78.345398,30.259583 100.566345,13.009583 172.493225,1.123474c26.867798,-5.27533 59.509033,-18.726379 67.602661,-23.399414c38.247803,-22.083374 43.20459,-2.866577 58.595337,0.503662c2.536865,0.472778 5.326538,0.683533 7.728882,0.426147c5.088257,-0.545288 10.004883,-0.912109 15.399414,-10.847412c3.980225,-7.329529 0.752197,-13.800232 -6.392212,-16.367981c-6.900635,-2.47998 -8.437988,0.996033 -3.796631,8.561707c6.808594,13.290649 -1.961792,16.346985 -13.404297,13.791687c-9.248657,-2.065369 -7.808838,-3.986694 -17.200928,-8.077454c-19.309937,-8.410461 -31.468506,4.701599 -25.394531,-3.389832c12.599487,-16.784302 32.898193,-39.748169 38.488892,-62.217651c3.272339,-13.151672 0.814941,-34.382446 -4.95874,-42.808563c-4.295654,-6.268219 -10.273193,-13.048645 -21.152466,-12.997498c-1.125488,0.005554 -2.311157,0.09256 -3.5448,0.251801c-16.606812,2.143677 -25.918945,22.140472 -12.435791,26.459961c3.119263,0.999176 7.620605,2.275909 11.5448,-0.600525c6.514526,-4.775238 2.768921,-11.585144 -4.029053,-10.033844c-6.671631,1.522552 -7.214355,-1.994995 -2.498779,-7.244507c5.422607,-6.036774 13.864136,-6.802399 20.939331,-1.840179c18.993774,16.892395 15.163208,48.990417 0.561768,71.844727c-6.954956,10.885925 -18.035645,22.862366 -23.825562,31.438171c-4.399414,6.516174 -26.732056,23.401733 -30.256592,23.689941c-0.805786,0.065918 4.565552,-9.167664 6.547241,-15.128235c6.205322,-18.664978 4.014893,-39.352295 -9.200928,-45.268616c-3.374268,-1.510559 -7.256226,-2.354248 -17.801392,1.394714c12.730713,-2.442627 23.143555,2.676147 25.646362,15.070129c3.636841,18.009399 -4.811157,34.305542 -14.430908,43.195923c-15.058228,13.916565 -93.050781,30.26123 -132.919556,29.578613c-5.0802,-0.087036 -8.452759,-0.715759 -2.576294,-4.319641c21.864258,-10.996887 32.163696,-20.912598 38.198364,-36.6875c2.390259,-6.247986 2.795898,-12.279114 3.564209,-21.365479c0.152466,-2.545776 2.470581,-10.694885 5.462402,-15.360718c14.839722,-20.485291 48.678711,-21.498108 52.513184,-5.559326c6.234131,17.074219 -6.928101,35.283447 -20.31958,27.060425c-7.69519,-4.725281 -7.038696,-18.209412 0.852295,-17.781982c4.882446,0.264404 6.016479,3.592346 2.401978,6.895813c-2.115234,1.933228 -2.301392,2.831726 -0.658569,2.905579c3.664185,0.164734 7.077393,-4.285889 6.276001,-8.213013c-1.172974,-5.747681 -8.724365,-6.931702 -14.353516,-2.247009c-11.382568,9.4729 -1.937866,26.563782 13.675537,24.794128c6.383911,-0.723633 11.274902,-4.783203 15.360718,-12.590759c6.262329,-17.816162 -0.169556,-35.271912 -20.513306,-36.900574c-5.646729,-0.452087 -13.861816,0.873413 -18.518066,3.118591c5.75708,-8.564026 13.553711,-16.60321 18.866699,-20.087036c6.781128,-4.446533 9.241821,-5.274292 15.380127,-5.24939c7.7052,0.031311 13.172485,3.892151 14.237305,9.762695c1.348022,7.433044 -8.659912,13.105835 -12.861938,7.631897c-2.574463,-3.353577 1.680908,-5.511108 2.537476,-3.312317c0.534058,1.37085 2.863037,0.773987 3.27356,-1.200989c1.264771,-6.084351 -4.956055,-7.089539 -7.651245,-1.375305c-2.962524,7.261902 3.299927,10.499451 8.852295,9.18158c11.359985,-3.419617 10.632446,-17.09021 -1.20105,-22.547119c-3.876465,-1.787598 -8.91626,-1.991943 -14.179077,-0.832947c-7.848389,2.004822 -16.818359,10.194275 -22.276001,16.11615c-8.450806,9.1698 -16.816528,16.223267 -24.774658,24.697266c-2.739868,3.014221 -4.527954,7.145264 -4.59082,8.542358c-0.070801,1.574097 -2.853027,-9.690002 -7.554443,-16.445496c-8.174927,-11.746704 -14.846558,-15.892151 -23.108887,-17.956299c-6.000366,-1.565735 -14.332886,-0.306763 -11.738403,5.656128c2.005127,4.608154 4.753906,1.596558 14.740845,3.00238c6.584961,0.926941 11.510986,3.46283 16.213013,9.18158c8.283936,10.075073 9.567017,21.872009 8.348633,34.98291c1.07959,23.995361 -20.320313,39.860535 -43.680176,49.665649c-35.49469,14.110291 -103.368835,-17.460205 -139.331116,-38.237183c-11.063538,-6.391846 -18.883057,-10.967041 -26.459961,-14.857056c-6.147705,-3.15625 -12.136292,-5.862183 -19.564087,-8.716675c-0.579834,-0.146057 -2.289368,-1.158936 0.154968,-0.813538c70.530701,5.106384 69.504395,-5.743652 93.733276,-49.355774c12.456177,-18.985138 37.42218,-14.630035 37.539795,2.789368c0.047607,7.042053 -6.140137,11.504028 -6.217896,5.888611c-0.091309,-6.592041 -9.285278,-9.371521 -13.714233,-1.220337c-3.22583,5.937012 6.181702,11.302307 12.571411,10.169434c9.164124,-1.624756 13.352417,-11.989807 8.794128,-21.830444c-4.241638,-9.157166 -10.772461,-11.487762 -20.978149,-10.86676c-11.555664,0.703125 -19.120728,8.609619 -26.59552,22.353394c0.185852,-22.857391 -6.950195,-41.199799 -1.685181,-58.44043c2.165588,-7.091461 3.778198,-9.562927 6.527771,-11.27356c4.08667,-2.542511 8.95813,-2.506622 10.983032,1.820801c1.760803,3.763031 0.443848,5.877625 -2.711853,4.319611c-3.215515,-1.587555 -6.411133,4.012939 -3.699768,7.631927c1.63324,2.17981 5.692871,2.493622 7.360779,2.130737c4.911011,-1.068481 6.095215,-9.050293 3.196106,-14.721497c-2.225098,-3.848053 -5.684143,-5.649933 -9.549622,-5.598022z" id="path3801"/>
  <path fill="#ff7f00" d="m743.760315,567.193909c-1.47644,2.427368 -3.018372,4.806274 -4.668274,7.108887c8.073914,1.223694 14.256592,8.183838 14.256592,16.600403c0,9.280212 -7.513977,16.794128 -16.794128,16.794128c-7.947449,0 -14.601074,-5.507751 -16.348572,-12.920044c-2.16449,1.83429 -4.402161,3.579956 -6.702148,5.24939c3.631165,9.169861 12.584717,15.651245 23.05072,15.651245c13.688232,0 24.774719,-11.086426 24.774719,-24.774719c0,-11.177307 -7.404236,-20.621338 -17.568909,-23.70929z" id="path3839"/>
  <path fill="#000000" d="m736.554504,578.138123c-0.123047,0 -0.245789,0.01593 -0.368042,0.019348c-3.757813,4.798828 -7.905029,9.27478 -12.377686,13.404297c0.000366,0.006592 -0.000305,0.012817 0,0.019348c0.35199,6.729065 5.92981,12.087097 12.745728,12.087097c7.042664,0 12.765076,-5.722412 12.765076,-12.765076c0,-7.042603 -5.722412,-12.765076 -12.765076,-12.765076l0,0.000061zm0,9.588379c1.760681,0 3.176758,1.416077 3.176758,3.176697c0,1.760681 -1.416077,3.176758 -3.176758,3.176758c-1.76062,0 -3.176758,-1.416077 -3.176758,-3.176758c0,-1.76062 1.416138,-3.176697 3.176758,-3.176697z" id="path3841"/>
  <path fill="#000000" d="m795.731018,460.38559c-15.987061,0 -30.219727,7.522766 -39.360596,19.215424c1.623474,6.114258 2.736084,12.430054 3.312317,18.905487c4.968018,-15.157745 19.230347,-26.111267 36.048279,-26.111267c2.348267,0 4.646179,0.230652 6.876465,0.639221c-2.625549,-3.668304 -4.453064,-7.962708 -5.191223,-12.610138c-0.557007,-0.018402 -1.123779,-0.038727 -1.685242,-0.038727zm42.033752,23.031372c-3.386536,1.338226 -7.062561,2.072632 -10.924927,2.072632c-0.863159,0 -1.73175,-0.04425 -2.576233,-0.116211c5.839844,6.671295 9.394592,15.386902 9.394592,24.949066c0,20.945496 -16.98175,37.927185 -37.927185,37.927185c-17.111267,0 -31.577332,-11.33606 -36.30011,-26.905457c-0.722656,6.452209 -1.994141,12.732178 -3.757813,18.808655c9.105042,12.208984 23.66156,20.106445 40.057922,20.106445c27.57312,0 49.91748,-22.363708 49.91748,-49.936829c0,-9.91098 -2.904846,-19.137268 -7.883728,-26.905487z" id="path3649"/>
  <path fill="#ff7f00" d="m622.990906,310.150421c-13.688232,0 -24.774231,11.085999 -24.774231,24.7742c0,13.688232 11.085999,24.774231 24.774231,24.774231c13.688171,0 24.77417,-11.085999 24.77417,-24.774231c0,-13.688202 -11.085999,-24.7742 -24.77417,-24.7742zm0,7.976288c9.280151,0 16.797913,7.517792 16.797913,16.797913c0,9.280151 -7.517761,16.797943 -16.797913,16.797943c-9.280151,0 -16.797974,-7.517792 -16.797974,-16.797943c0,-9.280121 7.517822,-16.797913 16.797974,-16.797913z" id="path3664"/>
  <path fill="#000000" d="m622.990906,322.162872c-7.042664,0 -12.76178,5.719147 -12.76178,12.761749c0,7.042633 5.719116,12.76178 12.76178,12.76178c7.042603,0 12.761719,-5.719147 12.761719,-12.76178c0,-7.042603 -5.719116,-12.761749 -12.761719,-12.761749zm0,9.588776c1.76062,0 3.172974,1.412354 3.172974,3.172974c0,1.760651 -1.412354,3.173004 -3.172974,3.173004c-1.760681,0 -3.173096,-1.412354 -3.173096,-3.173004c0,-1.76062 1.412415,-3.172974 3.173096,-3.172974z" id="path3666"/>
  <path fill="#000000" id="path3072" d="m526.493835,686.82428c12.420471,-11.001099 13.570313,-29.974609 2.569275,-42.395081c-11.001099,-12.420532 -29.974701,-13.570313 -42.395142,-2.569214c-10.744934,9.51709 -13.055817,25.003052 -6.360901,37.047913c3.848785,-1.381775 8.033356,-1.434814 11.878571,-0.172974c-0.288635,-0.289185 -0.563751,-0.59021 -0.838226,-0.900085c-7.458405,-8.420715 -6.67981,-21.267883 1.740845,-28.726318c8.420624,-7.458313 21.267883,-6.679749 28.726257,1.740906c7.458374,8.420593 6.679749,21.267944 -1.740906,28.726257c-5.759888,5.101624 -13.59491,6.364868 -20.360535,3.948853c0.143646,0.151306 0.29126,0.282532 0.430603,0.43988c2.65976,3.002991 4.13269,6.645325 4.489929,10.354492c7.711365,0.500916 15.614746,-1.96283 21.860229,-7.494629z"/>
  <path fill="#ff7f00" id="path3074" d="m516.838074,675.925903c6.39032,-5.660095 6.983398,-15.445923 1.323303,-21.836304c-5.660034,-6.390381 -15.445923,-6.983398 -21.836243,-1.323303c-6.390442,5.660034 -6.983368,15.445923 -1.323364,21.836243c5.660126,6.390381 15.445923,6.983398 21.836304,1.323364zm-7.706421,-8.700745c-1.597534,1.415039 -4.01413,1.268555 -5.429138,-0.328979c-1.415039,-1.597595 -1.268585,-4.014221 0.328949,-5.429199c1.597626,-1.415039 4.014221,-1.268616 5.42926,0.328979c1.415009,1.597595 1.268585,4.014221 -0.329071,5.429199z"/>
  <g fill="#008000" transform="matrix(-0.893873 0.791723 -0.791723 -0.893873 1806.23 743.822)" id="g3076">
   <path fill="#000000" d="m800.864258,749.058228c-7.560486,0 -13.693054,6.132568 -13.693054,13.693054c0,7.560486 6.132568,13.693054 13.693054,13.693054c7.560486,0 13.693054,-6.132568 13.693054,-13.693054c0,-7.560486 -6.132568,-13.693054 -13.693054,-13.693054zm0,3.190369c5.796387,0 10.502686,4.706299 10.502686,10.502686c0,5.796387 -4.706299,10.502747 -10.502686,10.502747c-5.796387,0 -10.502686,-4.70636 -10.502686,-10.502747c0,-5.796387 4.706299,-10.502686 10.502686,-10.502686z" id="path3078"/>
   <path fill="#000000" id="path3080" d="m804.593262,762.752808c0,2.061462 -1.671204,3.732666 -3.732666,3.732666c-2.061462,0 -3.732666,-1.671204 -3.732666,-3.732666c0,-2.061462 1.671204,-3.732666 3.732666,-3.732666c2.061462,0 3.732666,1.671204 3.732666,3.732666z"/>
  </g>
  <g fill="#502d16" id="g2935" transform="matrix(0.994312 0 0 0.994312 94.4682 -170.309)">
   <path fill="#000000" id="path3789" d="m297.225372,698.369812c-8.649475,0 -15.652924,7.003418 -15.652924,15.652893c0,8.649475 7.003448,15.690186 15.652924,15.690186c8.649475,0 15.652924,-7.04071 15.652924,-15.690186c0,-8.649475 -7.003448,-15.652893 -15.652924,-15.652893zm0,3.018738c6.986115,0 12.634155,5.648071 12.634155,12.634155c0,6.986145 -5.648041,12.671448 -12.634155,12.671448c-6.986115,0 -12.634155,-5.685303 -12.634155,-12.671448c0,-6.986084 5.648041,-12.634155 12.634155,-12.634155z"/>
   <path fill="#000000" d="m301.744385,714.038818c0,2.494995 -2.022644,4.517639 -4.51767,4.517639c-2.495056,0 -4.51767,-2.022644 -4.51767,-4.517639c0,-2.495056 2.022614,-4.5177 4.51767,-4.5177c2.495026,0 4.51767,2.022644 4.51767,4.5177z" id="path3793"/>
  </g>
  <g fill="#502d16" id="g2942" transform="matrix(0.994312 0 0 0.994312 -207.474 -80.1438)">
   <path fill="#ff7f00" d="m383.490021,576.612671c-5.935455,0 -10.749908,4.814453 -10.749908,10.749878c0,5.935486 4.814453,10.749939 10.749908,10.749939c5.935455,0 10.749878,-4.814453 10.749878,-10.749939c0,-5.935425 -4.814423,-10.749878 -10.749878,-10.749878zm0,2.504639c4.550507,0 8.24527,3.694763 8.24527,8.245239c0,4.550537 -3.694763,8.2453 -8.24527,8.2453c-4.550507,0 -8.24527,-3.694763 -8.24527,-8.2453c0,-4.550476 3.694763,-8.245239 8.24527,-8.245239z" id="path3785"/>
   <g fill="#502d16" id="g2939">
    <path fill="#ff7f00" d="m385.131989,587.363525c0,0.908203 -0.736237,1.64447 -1.64444,1.64447c-0.908203,0 -1.64444,-0.736267 -1.64444,-1.64447c0,-0.908203 0.736237,-1.644409 1.64444,-1.644409c0.908203,0 1.64444,0.736206 1.64444,1.644409z" id="path3787"/>
   </g>
  </g>
  <g fill="#552200" id="g2957" transform="matrix(0.994312 0 0 0.994312 -60.1644 -133.136)">
   <path fill="#000000" id="path3779" d="m539.349609,542.276672c-6.934143,0 -12.558716,5.624512 -12.558716,12.558655c0,6.934143 5.624573,12.558716 12.558716,12.558716c6.934143,0 12.558655,-5.624573 12.558655,-12.558716c0,-6.934143 -5.624512,-12.558655 -12.558655,-12.558655zm0,2.926025c5.316162,0 9.632629,4.316467 9.632629,9.632629c0,5.316223 -4.316467,9.632629 -9.632629,9.632629c-5.316162,0 -9.632629,-4.316406 -9.632629,-9.632629c0,-5.316162 4.316467,-9.632629 9.632629,-9.632629z"/>
   <path fill="#000000" d="m541.580383,554.83667c0,1.233887 -1.000244,2.234131 -2.234131,2.234131c-1.233826,0 -2.23407,-1.000244 -2.23407,-2.234131c0,-1.233887 1.000244,-2.234131 2.23407,-2.234131c1.233887,0 2.234131,1.000244 2.234131,2.234131z" id="path3781"/>
  </g>
  <path fill="#000000" id="path3773" d="m635.611023,375.199646c-6.173035,0 -11.180237,5.007141 -11.180237,11.180176c0,6.173004 5.007202,11.180145 11.180237,11.180145c6.172974,0 11.180115,-5.007141 11.180115,-11.180145c0,-6.173035 -5.007141,-11.180176 -11.180115,-11.180176zm0,2.604858c4.732605,0 8.575256,3.842651 8.575256,8.575317c0,4.732635 -3.842651,8.575287 -8.575256,8.575287c-4.732727,0 -8.575378,-3.842651 -8.575378,-8.575287c0,-4.732666 3.842651,-8.575317 8.575378,-8.575317z"/>
  <path fill="#ff7f00" d="m516.928345,474.474243c-22.839142,0 -41.355438,18.516296 -41.355438,41.355469c0,6.207336 1.366333,12.099976 3.816833,17.3797c1.252533,-0.721741 2.675079,-1.148804 4.224487,-1.148804c4.713623,0 8.56015,3.846558 8.56015,8.560181c0,2.432739 -1.035034,4.596741 -2.668121,6.151428c7.299988,6.467163 16.896881,10.375916 27.422089,10.375916c9.896057,0 18.967773,-3.510315 26.088013,-9.30127c-1.572693,-4.170532 -2.895813,-8.467102 -3.965088,-12.858765c-5.371887,6.178711 -13.285034,10.079468 -22.122925,10.079468c-16.177734,0 -29.311981,-13.06012 -29.311981,-29.237854c0,-16.177734 13.134247,-29.312012 29.311981,-29.312012c7.659607,0 14.64209,2.968048 19.862488,7.781982c0.575867,-4.50592 1.422241,-8.945404 2.519897,-13.266357c-6.452881,-4.161591 -14.135681,-6.559082 -22.382385,-6.559082z" id="path3726"/>
  <path fill="#000000" d="m516.928345,491.66864c-13.322815,0 -24.123993,10.838226 -24.123993,24.161072c0,13.322876 10.801178,24.086975 24.123993,24.086975c8.793945,0 16.495483,-4.688049 20.714783,-11.709961c-1.134827,-6.377258 -1.741638,-12.936829 -1.741638,-19.640137c0,-2.446838 0.104004,-4.892639 0.259399,-7.300201c-4.409302,-5.806519 -11.38501,-9.597748 -19.232544,-9.597748zm0,10.672363c7.422791,0 13.414612,6.065979 13.414612,13.488708c0,7.422729 -5.991821,13.414612 -13.414612,13.414612c-7.422729,0 -13.414612,-5.991882 -13.414612,-13.414612c0,-7.422729 5.991882,-13.488708 13.414612,-13.488708z" id="path3728"/>
  <g fill="#552200" id="g2996" transform="matrix(0.994312 0 0 0.994312 -60.1644 -133.136)">
   <path fill="#000000" id="path3686" d="m671.143982,750.173523c-9.980164,0 -18.075439,8.095215 -18.075439,18.075378c0,9.980225 8.095276,18.075439 18.075439,18.075439c9.980164,0 18.075378,-8.095215 18.075378,-18.075439c0,-9.980164 -8.095215,-18.075378 -18.075378,-18.075378zm0,4.211365c7.651428,0 13.864014,6.212585 13.864014,13.864014c0,7.651489 -6.212585,13.864075 -13.864014,13.864075c-7.651489,0 -13.864014,-6.212585 -13.864014,-13.864075c0,-7.651428 6.212524,-13.864014 13.864014,-13.864014z"/>
   <path fill="#000000" d="m676.861511,768.250854c0,3.1604 -2.561951,5.722412 -5.722351,5.722412c-3.1604,0 -5.722412,-2.562012 -5.722412,-5.722412c0,-3.1604 2.562012,-5.722351 5.722412,-5.722351c3.1604,0 5.722351,2.561951 5.722351,5.722351z" id="path3690"/>
  </g>
  <path fill="#000000" d="m567.325684,552.293701c-19.846741,0 -35.94519,16.098328 -35.94519,35.945129c0,19.846802 16.09845,35.908081 35.94519,35.908081c19.846802,0 35.945129,-16.061279 35.945129,-35.908081c0,-19.846802 -16.098328,-35.945129 -35.945129,-35.945129zm0,10.487061c14.058105,0 25.458069,11.399902 25.458069,25.458069c0,14.058167 -11.399963,25.421021 -25.458069,25.421021c-14.058167,0 -25.458069,-11.362854 -25.458069,-25.421021c0,-14.058167 11.399902,-25.458069 25.458069,-25.458069z" id="path3678"/>
  <path fill="#ff7f00" d="m567.325684,567.264648c-11.577271,0 -20.974182,9.396912 -20.974182,20.974182c0,11.577332 9.396912,20.937134 20.974182,20.937134c11.577271,0 20.974182,-9.359802 20.974182,-20.937134c0,-11.577271 -9.396912,-20.974182 -20.974182,-20.974182zm0,9.264221c6.450256,0 11.672913,5.259766 11.672913,11.709961c0,6.450195 -5.222656,11.672913 -11.672913,11.672913c-6.450195,0 -11.672913,-5.222717 -11.672913,-11.672913c0,-6.450195 5.222717,-11.709961 11.672913,-11.709961z" id="path3682"/>
  <path fill="#000000" d="m664.326355,577.155884c-19.984558,0 -36.1698,16.185303 -36.1698,36.1698c0,19.984436 16.185242,36.169739 36.1698,36.169739c19.984436,0 36.169739,-16.185303 36.169739,-36.169739c0,-19.984497 -16.185303,-36.1698 -36.169739,-36.1698zm0,11.645142c13.548706,0 24.524536,10.97583 24.524536,24.524658c0,13.548767 -10.97583,24.524597 -24.524536,24.524597c-13.548889,0 -24.524658,-10.97583 -24.524658,-24.524597c0,-13.548828 10.975769,-24.524658 24.524658,-24.524658z" id="path3670"/>
  <path fill="#ff7f00" d="m664.326355,594.693787c-10.282104,0 -18.631897,8.349792 -18.631897,18.631897c0,10.282043 8.349792,18.631836 18.631897,18.631836c10.282043,0 18.631836,-8.349792 18.631836,-18.631836c0,-10.282104 -8.349792,-18.631897 -18.631836,-18.631897zm0,13.999329c2.570435,0 4.632446,2.062012 4.632446,4.632568c0,2.570496 -2.062012,4.632507 -4.632446,4.632507c-2.570557,0 -4.632507,-2.062012 -4.632507,-4.632507c0,-2.570557 2.061951,-4.632568 4.632507,-4.632568z" id="path3672"/>
  <path fill="#000000" d="m558.654358,346.664551c-34.401062,0 -62.292572,27.89151 -62.292572,62.292603c0,34.401062 27.89151,62.292603 62.292572,62.292603c34.401123,0 62.292603,-27.891541 62.292603,-62.292603c0,-34.401093 -27.891479,-62.292603 -62.292603,-62.292603zm0,18.565491c24.146912,0 43.727112,19.5802 43.727112,43.727112c0,24.146912 -19.5802,43.690033 -43.727112,43.690033c-24.146912,0 -43.727112,-19.543121 -43.727112,-43.690033c0,-24.146912 19.5802,-43.727112 43.727112,-43.727112z" id="path2849"/>
  <path fill="#ff7f00" d="m558.654358,370.196198c-20.839111,0 -37.760925,16.921844 -37.760925,37.760956c0,20.839111 16.921814,37.723877 37.760925,37.723877c20.839111,0 37.723938,-16.884766 37.723938,-37.723877c0,-20.839111 -16.884827,-37.760956 -37.723938,-37.760956zm0,17.379669c11.246521,0 20.344238,9.134766 20.344238,20.381287c0,11.24649 -9.097717,20.344208 -20.344238,20.344208c-11.24646,0 -20.381287,-9.097717 -20.381287,-20.344208c0,-11.246521 9.134827,-20.381287 20.381287,-20.381287z" id="path3625"/>
  <path fill="#000000" d="m647.294434,401.361023c-7.022644,0 -13.883789,0.675049 -20.529541,1.96402c0.102844,1.532257 0.185303,3.073822 0.185303,4.632111c0,10.27713 -2.306885,20.013947 -6.373779,28.756134c8.324585,-3.098114 17.315125,-4.817413 26.718018,-4.817413c42.339783,0 76.670654,34.330902 76.670654,76.670715c0,30.148193 -17.416565,56.216553 -42.726563,68.740479c9.717285,4.692322 17.229736,13.175598 20.677673,23.531128c31.480713,-18.676758 52.58374,-53.011719 52.58374,-92.271606c0,-59.209595 -47.995911,-107.205566 -107.205505,-107.205566zm-67.925232,71.667969c-6.533936,2.078156 -13.492493,3.223969 -20.714844,3.223969c-4.516418,0 -8.920837,-0.460205 -13.192261,-1.296997c-3.487305,10.571899 -5.37323,21.870209 -5.37323,33.610626c0,15.800476 3.421753,30.817688 9.56073,44.320007c5.325195,-2.671509 11.3125,-4.187439 17.676086,-4.187439c6.198914,0 12.046692,1.421875 17.268494,3.965088c-8.797485,-12.471619 -13.970398,-27.672546 -13.970398,-44.097656c0,-12.829498 3.173401,-24.911072 8.745422,-35.537598zm23.605225,98.0896c2.488831,5.176636 3.89093,10.9552 3.89093,17.083191c0,6.410767 -1.552856,12.469971 -4.261536,17.824402c6.629089,3.044067 13.626892,5.428833 20.900085,7.07782c0.122498,-11.298401 4.917358,-21.484314 12.525269,-28.719055c-12.182007,-1.795044 -23.44281,-6.451233 -33.054749,-13.266357z" id="path3629"/>
  <path fill="#000000" d="m221.511993,266.023987c-2.298996,-0.026978 -4.519989,0.524017 -6.372986,1.879028c-6.836014,5 -3.781006,19.096985 3.505997,17.936981c1.685989,-0.268982 3.880997,-2.10199 4.610001,-4.72699c1.209991,-4.356995 -1.940002,-6.096008 -4.358002,-3.447998c-2.373001,2.598999 -4.378998,1.10498 -4.10701,-3.041016c0.313004,-4.766998 3.715012,-7.410004 8.445999,-6.527985c3.183014,0.593994 5.614014,1.563995 9.956009,7.574005c19.227997,26.616974 8.231995,41.516998 30.373001,78.837982c-11.960007,-10.085999 -21.869995,-14.70401 -32.891006,-11.15799c-9.733002,3.132996 -14.970993,7.67099 -15.593002,17.743988c-0.667999,10.824005 6.988007,18.960999 16.116013,17.141998c6.363998,-1.268005 13.182999,-9.684998 8.019989,-14.042999c-7.089996,-5.983002 -14.651001,-0.052979 -12.338989,6.121002c1.968994,5.259003 -5.407013,3.362 -7.923004,-3.216003c-6.223999,-16.268982 15.449997,-29.40799 33.955994,-16.251007c25.544998,21.096008 38.384995,36.594025 56.775009,48.929016c15.088989,10.122009 43.412994,23.785004 59.040985,31.690002c15.902008,7.988983 33.583008,12.266998 54.740997,13.25c3.03302,0.140991 2.580017,0.487 -2.905975,2.130005c-19.278015,5.776978 -35.077026,12.878998 -51.022003,22.992981c-30.552002,19.277008 -91.437012,57.507996 -132.183014,45.403992c-30.365997,-9.019989 -45.358994,-23.531982 -74.071991,-56.638977c-6.21701,-7.167999 -4.417999,-11.605011 -2.828003,-20.416016c1.820999,-10.093994 4.220993,-15.565002 10.828003,-19.216003c6.360001,-3.513977 12.744003,-6.431 12.473999,-9.258972c-0.464996,-4.873016 -9.270996,-2.72702 -16.290009,4.009979c-5.644989,5.417999 -9.863998,16.843994 -10.71199,28.997009c-0.41301,5.915985 -1.096008,8.983002 -1.781998,8.078003c-0.609009,-0.803009 -3.423004,-2.235016 -6.218002,-3.196014c-23.413002,-13.306976 -44.449005,9.412018 -61.539902,12.881012c-14.5597,2.955994 -27.810902,1.071991 -37.830303,-13.57901c-7.875401,-12.042999 -18.840199,-36.382996 0.852303,-43.311981l3.660999,-0.213013l-3.719101,1.472015c-6.741501,2.664001 -5.603699,11.327972 1.491501,11.370972c5.065899,0.030029 7.840401,-2.969971 7.360699,-8c-0.5219,-5.473999 -4.1436,-8.761993 -9.084698,-8.290985c-0.946701,0.091003 -1.825802,0.307007 -2.673103,0.619995c-5.931,2.192993 -11.508598,9.126007 -10.343697,20.726013c3.812698,37.972992 36.075996,54.691986 67.525299,35.951996c12.330002,-7.347992 24.059998,-9.919006 15.07,-3.390015c-11.065002,9.703003 -8.076004,22.27002 2.925011,30.276001c5.616989,2.960022 10.173996,3.363007 14.255981,1.182007c9.985001,-5.337006 8.612015,-19.337982 -2.013992,-20.300995c-5.255005,-0.476013 -9.248001,3.316986 -7.593002,7.205994c1.130997,2.657013 4.983002,3.902008 7.089005,2.304993c0.944,-0.714996 0.457001,-1.17099 -1.587997,-1.453003c-3.49501,-0.480988 -4.182007,-2.92099 -1.395004,-5.074982c4.505997,-3.481018 10.399002,4.238983 7.768005,10.188995c-4.580002,10.355011 -19.823006,4.947998 -23.109009,-7.729004c-4.244987,-11.020996 16.233002,-24.268982 33.414001,-18.187988c3.682999,1.544006 8.397995,5.428986 9.529999,6.876007c27.574005,35.27298 51.867996,54.209961 80.367996,61.016968c8.567001,2.046021 16.546005,3.057007 24.018997,3.254028c-71.445984,15.033997 -140.091988,-20.449005 -177.878189,-26.247009c-13.865692,-2.127014 -17.246902,-0.871002 -22.198402,0.329987c-25.206699,6.109009 -23.429501,-18.996002 -35.583399,-19.796997c-2.415501,-0.158997 -3.0021,-0.272003 -4.610201,-0.231995c-2.0674,0.050995 -3.8594,0.998016 -5.8692,2.904999c-3.3141,3.145996 -3.8133,8.085999 -1.1235,11.022003c2.5978,2.835999 4.1787,1.070007 3.912801,-4.358002c0.253799,-14.667999 14.433998,-5.294983 19.0411,3.622009c6.566399,12.708984 18.501301,8.951996 13.1138,12.977997c-10.096802,7.544983 -25.3349,17.26297 -33.588301,29.57901c-4.8308,7.208008 -9.024139,20.372986 -8.44545,26.536987c0.47505,5.059998 1.76055,10.88501 8.32925,12.455017c8.289801,1.981995 17.663599,-8.119019 12.4552,-13.346008c-1.204901,-1.208984 -2.976301,-2.86499 -5.530401,-1.91803c-4.240299,1.571045 -4.201599,6.361023 -0.638899,6.77002c3.496399,0.401978 2.851099,2.625 -0.668501,4.833008c-4.0474,2.539001 -8.171599,1.330017 -10.2275,-3.022034c-1.3833,-2.927979 -1.3473,-5.238953 0.3099,-12.473999c1.1188,-4.884949 3.529901,-11.517944 5.3268,-14.740967c6.116301,-10.968994 20.886499,-25.468994 31.496298,-30.876007c4.487701,-2.287994 18.642403,-7.437988 19.738403,-7.187012c0.407288,0.093018 -2.255913,2.272003 -5.908012,4.843018c-8.320087,5.855988 -15.863689,17.889008 -18.14999,28.938995l-1.491497,7.205994l2.304996,-6.179016c3.916603,-10.567993 8.836601,-18.175964 14.954002,-23.089966c11.109989,-8.924011 19.3195,-10.88501 41.975903,-6.101013c29.123993,6.148987 114.809998,45.356995 193.470993,12.260986c32.17099,-11.03299 53.720001,-35.962982 77.326996,-43.447998c-32.320984,25.304016 -46.553986,71.640991 -78.643982,99.177002c-8.424011,7.229004 -18.65802,10.145996 -24.058014,10.440002c-5.401001,0.294983 -9.904999,-2.179016 -11.428986,-6.76001c-1.428009,-4.294983 0.591003,-10.697998 4.377991,-13.927002c2.970001,-2.531982 4.804993,-6.613953 3.641998,-8.078003c-2.562988,-3.221985 -9.519989,1.583008 -11.912994,8.233032c-2.375,6.596985 -1.437012,12.028992 2.828003,16.463989c2.108002,2.192017 3.273987,4.11499 2.575989,4.262024c-1.751007,0.369995 -9.856995,-2.082031 -15.496002,-8.174011c-5.638992,-6.093018 -8.938995,-19.647034 -2.983002,-23.652039c5.901001,-3.967957 5.956009,-8.45697 2.382004,-9.742981c-8.095993,-2.914001 -15.742004,12.450012 -6.024002,29.481995c9.718002,17.032043 29.302002,18.957031 50.906006,9.335999c21.597992,-9.617004 52.113007,-68.201965 82.671997,-97.412994c11.920013,-13.944977 22.868011,-14.639984 15.050995,-3.177002c-41.621002,73.097992 -88.335999,130.282013 -160.521988,156.97702c-19.319,7.14502 -45.770004,1.419006 -57.278,-8.639038c-9.369003,-7.605957 -6.296005,-21.399963 1.490997,-31.146973c-25.841003,27.213013 2.485992,47.624023 33.356003,46.21698c7.748001,-1.197998 4.509995,-0.026978 -6.431,3.352051c-31.682999,5.98999 -86.753006,-1.876038 -88.968002,-42.363037c-0.242004,-8.257019 4.582001,-15.719971 10.866997,-16.794983c6.313004,-1.078979 10.025993,8.453003 3.98999,10.247009c-3.486,1.036987 -4.811989,-0.29303 -1.936989,-1.955994c1.760002,-1.019043 1.837997,-1.557007 0.348999,-2.57605c-2.702011,-1.848999 -5.639,1.444031 -3.661011,4.106018c2.195,2.955994 8.193008,1.708008 9.317017,-1.937012c1.074997,-3.487976 -0.912003,-7.627991 -3.671005,-8.822998c-16.014,-6.938965 -25.067001,15.536011 -14.692001,35.088989c10.374001,19.554016 45.580994,31.981018 73.761993,29.114014c133.919998,-13.570984 191.160019,-141.899994 221.520004,-181.751984c25.958008,-16.015991 55.975006,-22.667999 81.936005,-18.170013c12.06601,2.091003 12.47699,2.08902 11.796997,-0.405975c-0.670013,-2.456024 -1.529999,-2.766998 -16.619995,-5.540009c-16.899994,-3.106018 -27.867004,-3.877991 -47.070007,-3.351013c-7.212006,0.197021 -18.794006,-0.68399 -29.519989,-2.266998c-16.667999,-2.458984 -18.218018,-2.877991 -27.835999,-7.553986c-16.757996,-8.149994 -25.957001,-18.856018 -24.115997,-28.087006c1.188995,-5.959991 4.938995,-8.149017 11.177002,-6.470001c5.734985,1.544006 7.902985,0.68399 8.231995,-3.292999c0.270996,-3.272003 -4.792023,-6.593994 -9.878021,-6.489014c-8.122986,0.167999 -15.25,9.381012 -13.791992,17.840027c1.049011,6.086975 2.718994,9.083984 8.13501,14.60498c5.481995,5.58902 4.350983,5.455994 -2.576019,-0.309998c-20.408997,-16.988007 -26.477997,-37.720001 -14.217987,-48.445007c5.636017,-4.929993 11.100006,-5.509003 22.993011,-2.479004c6.549988,1.667999 9.928986,1.985016 12.203003,1.143005c4.066986,-1.507996 4.77298,-4.822998 1.802002,-8.503998c-3.782013,-4.684998 -8.833008,-6.231995 -18.112,-5.540009c-15.361023,1.14502 -26.434021,10.705017 -27.60202,23.806c-0.647003,7.246002 -2.052002,4.914001 -2.576996,-4.260986c-0.64801,-11.332001 2.433014,-23.872986 7.360992,-29.985992c6.084015,-7.546021 14.834015,-11.610016 26.731018,-12.455017c10.367981,-0.735992 17.311005,-3.717987 18.246979,-7.806c0.747009,-3.259979 -3.517975,-8.873993 -7.398987,-9.763c-1.281006,-0.292999 -2.712006,-0.461975 -4.20401,-0.483978c-0.403992,-0.006012 -0.824005,-0.013 -1.238983,0c-6.239014,0.200989 -13.694,2.552002 -19.81601,6.391998c-18.018005,11.302002 -26.722992,29.873993 -24.057983,51.428986c1.827972,14.789001 7.415985,27.647003 18.187988,40.522003c-15.856995,-5.42099 -46.243011,-25.404999 -64.910004,-44.958008c-19.901001,-20.875977 -22.433014,-36.996979 -32.192993,-70.565979c-3.700012,-12.723999 -11.959,-27.34201 -17.376007,-30.334015c-2.567001,-1.419006 -5.645004,-2.406982 -8.600006,-2.44101l0,0z" id="path2983"/>
  <path fill="#000000" d="m568.22522,631.446106c-2.068726,0.014038 -3.691833,1.020142 -6.237305,3.719055c-12.404297,13.152466 -5.733398,35.401245 13.11377,43.7771c9.76825,4.341125 17.191589,4.919373 27.91272,2.208191c15.602722,-3.945557 27.909729,-11.851013 39.8255,-25.568909c7.092896,-8.165588 4.101074,-2.654602 -4.319641,7.941895c-16.072876,20.226074 -39.268982,33.433411 -63.1474,35.951416c-9.812988,1.034851 -26.271057,-0.924316 -38.508301,-4.590759c-4.397644,-1.317627 -8.683594,-2.807678 -11.680359,-3.506042c-1.308655,0.903076 -2.654663,1.711487 -4.048401,2.401917c0.074951,0.055298 0.131775,0.095459 0.213074,0.154968c3.277527,2.396606 23.024475,9.56781 31.011963,10.731201c14.532288,2.116638 27.947571,0.9198 44.222595,-3.951599c25.34436,-7.585876 43.423401,-22.266968 58.692261,-47.68988c0.531677,-0.885132 -0.7052,-1.896851 -3.40918,-2.789307l-4.242065,-1.394653l-8.891052,9.588318c-7.675842,8.262268 -10.544495,10.408752 -20.784424,15.535034c-10.756042,5.384705 -12.638977,5.946716 -19.91272,5.946716c-6.331726,0 -8.694763,-0.522949 -11.157349,-2.460022c-3.925354,-3.087708 -4.044312,-6.739746 -0.271179,-8.174316c3.67041,-1.395508 4.616333,-3.010193 2.711853,-4.590759c-2.225708,-1.847168 -7.263672,1.010437 -7.748169,4.397034c-0.718872,5.024597 0.939026,8.545288 4.881348,10.343811l3.815918,1.743347l-5.326843,-0.736084c-6.785095,-0.933533 -13.427246,-5.211182 -15.360718,-9.878906c-2.159912,-5.214539 1.206238,-10.708984 8.135559,-13.268677c5.91748,-2.185913 8.030945,-4.877197 5.481812,-6.992737c-3.657104,-3.035156 -13.840881,3.354614 -16.058044,10.072571c-1.019226,3.088257 -1.049194,5.171326 -0.096802,7.903137c2.07843,5.96228 0.571228,5.251404 -3.351074,-1.588379c-5.922119,-10.326965 -4.562378,-17.717712 4.745728,-25.68512c5.708374,-4.886108 6.016357,-8.883911 0.716675,-9.491455c-0.317688,-0.036438 -0.634216,-0.06012 -0.929749,-0.058105l0,0z" id="path2929"/>
  <path fill="#000000" d="m363.918121,583.435059c2.23526,5.858521 -0.809814,23.563721 -6.314056,36.712463c-0.454712,1.086304 -0.679565,0.362915 -0.524078,-1.686279c0.232605,-3.06543 -0.569611,-4.607788 -5.503082,-10.580261c-3.176422,-3.845459 -7.873596,-9.659912 -10.437561,-12.921631l-4.66217,-5.929932l1.565002,-8.424683c0.860748,-4.633545 1.928101,-8.697144 2.371826,-9.030151c0.443787,-0.332947 3.144257,1.901489 6.001099,4.965393c4.664368,5.002502 6.48938,7.862671 9.66806,15.15155c0.535858,1.228699 0.778595,-0.287781 0.539459,-3.369873c-0.367584,-4.73761 -1.302094,-6.786743 -6.044708,-13.254761l-5.609894,-7.650818l5.749298,3.098511c7.184082,3.871826 11.276703,7.877441 13.200806,12.920471l-0.000031,0l0.000031,0z" id="path2925"/>
  <path fill="#000000" d="m527.450806,591.136353c-22.825073,6.566956 -33.745026,21.78595 -36.106628,44.145081c1.99353,-1.048157 4.058929,-1.871704 6.179138,-2.479431c2.710205,-12.675781 9.997192,-27.474182 38.295227,-20.745667c-7.563293,-6.436462 -7.642578,-18.102478 -8.367737,-20.919983z" id="path2921"/>
  <path fill="#000000" d="m187.576248,661.484802c-0.906921,2.325562 -1.340714,7.136658 -0.963974,10.691223l0.684967,6.462891l1.400528,-2.824402c0.770264,-1.553467 2.913757,-3.650085 4.76326,-4.65918c4.859726,-2.651428 7.299042,-6.467285 6.844696,-10.707092c-0.504868,-4.711426 -1.606186,-4.994263 -4.972473,-1.277222c-1.483765,1.638428 -3.222443,3.243652 -3.863739,3.5672c-1.857895,0.937317 2.221344,-5.115723 4.217056,-6.257568c3.444458,-1.970947 0.643158,-3.100464 -2.897827,-1.168457c-2.26857,1.237671 -4.16275,3.480774 -5.212494,6.172607z" id="path2919"/>
  <path fill="#000000" d="m298.865997,645.199341c-0.495819,10.850037 -0.983948,12.655212 -2.265442,8.377869c-0.68576,-2.28894 -3.024933,-4.493286 -8.265747,-7.789429c-4.020142,-2.528381 -8.073517,-5.430847 -9.007538,-6.44989c-1.838226,-2.005615 -3.019104,-13.572693 -1.529114,-14.978394c1.016174,-0.958679 11.634918,7.454346 13.027832,10.321716c0.803528,1.654053 0.913544,1.617859 1.100891,-0.362122c0.25061,-2.647766 -3.399139,-7.119019 -8.909027,-10.914551c-3.714569,-2.558838 -3.774261,-2.67218 -1.333679,-2.533264c1.405182,0.079956 4.883911,1.261475 7.730438,2.625549c7.372711,3.533081 10.005463,9.57843 9.451385,21.702515z" id="path2917"/>
  <path fill="#000000" d="m221.473053,458.868347c3.723465,0.517029 11.583939,3.201141 10.053986,8.253174c-1.7845,5.892426 -8.643768,0.814575 -12.265762,-4.711578c-29.041153,-5.093292 -33.906677,29.251495 -5.834991,45.322235c-31.565048,-14.069031 -29.955872,-56.763123 8.046768,-48.863831z" id="path2913"/>
  <path fill="#000000" d="m228.975677,627.539978c-3.883728,-2.368225 -6.880722,-8.325867 -8.159317,-16.219482c-0.414658,-2.559998 -1.019104,-5.930664 -1.343216,-7.490479c-0.556412,-2.67749 -0.420975,-2.635925 2.42337,0.744446c1.879761,2.233948 4.94928,4.068054 8.162201,4.877014c2.832199,0.713196 6.562134,2.407898 8.288742,3.766052c3.202194,2.51886 6.649872,11.142151 5.081696,12.710327c-0.476471,0.47644 -4.061127,-0.809204 -7.965958,-2.857056c-6.282364,-3.294678 -6.906784,-3.4328 -5.424164,-1.199829c0.921494,1.387878 3.971008,3.737305 6.776657,5.220947l5.101181,2.697571l-4.633347,-0.004944c-2.54834,-0.001831 -6.286865,-1.012695 -8.307846,-2.245117l0,0.000305l0,0.000244z" id="path2909"/>
  <path fill="#000000" d="m226.13768,666.733948c-1.443726,-9.673889 -6.712585,-14.967712 -15.07753,-15.148926l-4.149429,-0.089966l5.028015,2.600464c2.765427,1.430237 5.534149,3.587646 6.152679,4.79425c0.908127,1.771362 -0.17775,1.477966 -5.640045,-1.524109c-7.58577,-4.169006 -8.687302,-3.455322 -6.338913,4.106934c1.45137,4.673706 4.554001,7.121887 11.600433,9.153503c2.733795,0.788208 5.991089,2.490417 7.238434,3.782654c2.629257,2.723877 2.684723,2.365051 1.186356,-7.674927l0,0.000122z" id="path2907"/>
  <path fill="#000000" d="m432.748779,587.533447c-5.947906,-0.007935 -11.462524,1.281616 -15.515686,3.93219c-12.373108,8.091187 -11.48056,22.013611 1.472137,22.953857c6.286865,0.104065 12.768982,-4.54425 8.600464,-11.196045c-3.68158,-5.154053 -10.401825,-2.761047 -8.251801,3.079895c0.697906,1.895996 3.339081,1.980469 3.757874,0.484253c0.671722,-2.39978 5.638336,-1.169128 3.215485,2.769958c-3.954773,6.429626 -15.692474,2.929626 -15.128265,-4.84259c0.445618,-6.138367 5.976013,-11.232361 14.469666,-12.958801c6.766479,-1.375305 9.577454,-1.08197 17.607666,1.898315c7.753174,2.877441 11.226044,5.629822 18.401855,14.605225c4.863312,6.083008 11.459442,15.5 14.373077,20.987732c2.714355,5.112427 2.979156,6.320862 6.766907,12.378723c1.18927,-0.973694 2.380615,-1.948242 3.57663,-2.916199c-6.944305,-18.382568 -13.014648,-28.359924 -29.772095,-42.59491c-6.111633,-5.19165 -15.926666,-8.571411 -23.573914,-8.581604z" id="path2905"/>
  <path fill="#000000" d="m487.993866,535.921753c2.557587,3.038086 1.988159,6.732849 0.141754,8.75415c-1.426453,1.561523 -3.752869,3.244751 -7.754517,3.316284c-9.270782,0.16571 -20.005371,-10.782776 -21.060364,-24.119141c-1.80307,-22.79364 13.750244,-50.053345 39.269196,-63.942505c9.845001,-5.358337 8.743042,-2.651062 -1.84967,4.544281c-12.491302,8.485016 -22.053406,18.655273 -26.706512,28.40506c-4.630402,9.702087 -5.988373,15.933777 -6.023743,27.642822c-0.02356,7.790527 0.489746,10.580017 2.727417,14.822693c3.48053,6.599182 9.186279,10.5625 15.206238,10.5625c9.391022,-0.201294 6.323975,-12.084045 1.073364,-8.998291c-1.52951,0.898926 0.290558,0.487976 1.680878,1.778748c1.389648,1.290161 -0.63913,2.724243 -2.228699,2.476257c-2.793793,-0.435974 -3.010284,-3.248535 -1.146088,-5.396118c1.401672,-1.614685 5.243591,-1.552612 6.670746,0.153259z" id="path2903"/>
  <path fill="#000000" d="m310.157349,460.178894c-3.794617,-1.651794 -29.393799,-6.554474 -30.140747,-5.77243c-0.152588,0.159729 1.216278,0.970184 3.041962,1.800995c4.314148,1.963226 7.827759,7.728821 11.176971,18.340668c1.402954,4.445007 3.65097,9.132813 4.995667,10.417267c3.042999,2.906647 11.637024,5.753937 16.562103,5.487122l3.709686,-0.200958l-3.750122,-8.022491c-2.062531,-4.412384 -5.386292,-9.607788 -7.386108,-11.545441c-2.97876,-2.886108 -3.196075,-3.417267 -1.20224,-2.938232c4.211548,1.011749 9.565155,7.056335 12.999817,14.677551c1.82193,4.042694 3.48877,6.933044 3.704041,6.422943c0.77179,-1.828522 -1.205597,-14.815308 -2.822571,-18.538116c-2.039795,-4.69632 -5.233521,-7.667236 -10.888458,-10.128876z" id="path2901"/>
  <path fill="#000000" d="m412.869659,505.277863c-3.881287,-2.585144 -7.089996,-7.694214 -8.740997,-13.917694c-0.651764,-2.45697 0.090393,-2.016174 4.33429,2.574341c4.94397,5.347687 10.067657,8.882507 11.213837,7.736389c0.304596,-0.304596 -0.877716,-1.67984 -2.627289,-3.05603c-3.304504,-2.599335 -9.897247,-10.741516 -9.954865,-12.294464c-0.058258,-1.570618 11.829437,-0.94809 15.202362,0.796112c1.792633,0.927032 4.699432,4.262146 6.459534,7.411377c4.535095,8.114349 5.886017,9.614197 10.43988,11.590607c3.877075,1.682739 3.524597,1.752075 -9.132355,1.796722c-11.742432,0.041351 -13.600525,-0.243591 -17.194397,-2.63736z" id="path2899"/>
  <path fill="#000000" d="m439.309845,408.137024c-5.000641,-7.764496 -12.455383,-11.61557 -35.538269,-18.358734l-9.524078,-2.782257l4.390808,3.015472c5.58609,3.836365 7.837494,8.055756 9.946014,18.640045c2.70929,13.599945 5.179169,18.618286 11.247528,22.852783c2.886444,2.01416 8.023163,4.342438 11.414948,5.17392l6.16687,1.51178l-0.26532,-2.28302c-0.429413,-3.691498 -6.338013,-19.256653 -8.645782,-22.775879c-1.16861,-1.782074 -3.283691,-4.292755 -4.700195,-5.579315l-2.5755,-2.339172l3.751099,2.011017c7.358826,3.945129 12.654602,12.23175 16.860138,26.382141l1.401978,4.717255l0.330231,-4.371277c0.690094,-9.135254 -1.305359,-21.226837 -4.260162,-25.81485l0,0l-0.000305,0.000092z" id="path2897"/>
  <path fill="#000000" d="m534.4599,254.517838c-1.208801,0.025162 -2.417847,0.082321 -3.622253,0.174332c-16.587708,2.521851 -31.27121,8.851013 -44.39679,19.389771c-43.678497,36.182983 -36.882538,89.835571 -3.118774,128.348114c3.362427,2.607758 6.531128,4.745728 7.031464,4.745728c2.143829,0 0.637482,-5.100739 -2.188873,-7.438202c-15.76413,-14.654053 -25.256256,-33.02478 -27.176636,-52.919891c4.220001,-21.075623 16.378632,-42.773132 26.188751,-43.447754c4.631897,-0.318512 6.589081,-0.438751 8.193665,2.324432c1.038086,1.787659 0.899353,2.727753 -0.755432,4.745758c-2.690582,3.281219 -1.355957,6.351807 2.072632,4.765106c3.364868,-1.557159 3.812439,-7.477539 0.852295,-11.196075c-2.367126,-2.973633 -2.764343,-3.116913 -7.612549,-2.556885c-2.810974,0.324707 -5.059692,0.408539 -4.997559,0.174316c0.062134,-0.234192 2.792877,-1.387787 6.062927,-2.556885c10.669373,-3.814392 20.037415,-0.895325 21.036285,6.54718c0.433289,3.228455 -0.062012,4.722778 -2.983063,9.18158c-5.060181,7.723877 -4.000031,11.535706 2.188873,7.941864c2.050354,-1.190674 3.302979,-3.209381 4.280823,-6.895874c1.825073,-6.880402 0.446045,-12.467987 -3.874054,-15.786835c-4.706726,-3.615845 -4.180603,-4.270325 1.472137,-1.801453c11.305908,4.937866 15.206238,11.445679 13.152527,21.985382c-1.961975,10.068665 -1.871826,12.129822 0.522949,12.765045c7.206665,1.911652 10.193176,-11.289459 4.997559,-22.082214c-3.776489,-7.844879 -9.134583,-12.079681 -18.459961,-14.585876c-33.489899,-5.045532 -42.395081,14.588531 -52.668091,40.677765c-0.299255,-13.101868 3.434265,-25.698883 9.239655,-37.24939c16.194702,-28.196869 50.004181,-44.658493 73.839935,-40.948822c16.444763,2.559387 28.588989,13.899475 32.591248,27.048553c3.506958,11.521759 1.884216,19.580414 -12.705566,24.985565c-9.636536,3.570099 -17.455872,17.124756 -7.089722,21.637634c11.626831,2.308716 19.251526,-4.616882 24.946838,-14.217163c18.33136,-34.601685 -9.549377,-64.534332 -47.02124,-63.754807l0,0z" id="path2895"/>
  <path fill="#000000" d="m446.749634,313.973267c-0.511261,-0.438354 -2.570953,-2.710266 -4.577057,-5.048676c-4.236664,-4.93866 -10.863342,-8.119446 -17.489777,-8.395172c-3.838989,-0.159729 -26.006226,5.588715 -26.144501,6.779816c-0.031647,0.272644 1.359039,0.352264 3.090393,0.176971c3.796661,-0.384399 8.857727,2.456909 16.397491,9.205627c7.966797,7.130951 11.344971,9.199738 15.94873,9.766937c4.76947,0.587585 14.8526,-2.209808 13.746277,-3.813721c-1.597504,-2.316254 -14.46756,-10.78241 -18.822845,-12.382202c-5.422577,-1.991791 -4.803802,-2.921356 1.290558,-1.93869c2.763062,0.445526 7.039581,2.569794 12.229218,6.074615c4.38916,2.964203 8.252563,5.48642 8.585388,5.604919c0.713593,0.254059 -2.901886,-4.871429 -4.253906,-6.030426l0.000031,-0.000031l0,0.000031z" id="path2889"/>
  <path fill="#000000" id="path2955" d="m254.479233,489.466675c3.105545,-0.523193 7.205399,-2.481781 10.149033,2.156281c2.080536,3.278137 -6.188965,4.206024 -10.50174,0.863953c-24.494675,3.267548 -20.048462,27.66452 6.746552,25.336029c-29.320206,7.619446 -38.764465,-25.026764 -6.393845,-28.356262z"/>
  <g fill="#502d16" id="g2961" transform="matrix(1.19425 0 0 1.19425 -286.523 -219.642)">
   <path fill="#000000" d="m539.349609,547.052246c-6.934143,0 -12.558716,5.624512 -12.558716,12.558655c0,6.934143 5.624573,12.558716 12.558716,12.558716c6.934143,0 12.558655,-5.624573 12.558655,-12.558716c0,-6.934143 -5.624512,-12.558655 -12.558655,-12.558655zm0,2.926025c5.316162,0 9.632629,4.316467 9.632629,9.632629c0,5.316223 -4.316467,9.632629 -9.632629,9.632629c-5.316162,0 -9.632629,-4.316406 -9.632629,-9.632629c0,-5.316162 4.316467,-9.632629 9.632629,-9.632629z" id="path2963"/>
   <path fill="#000000" id="path2965" d="m542.450562,559.612244c0,1.714478 -1.389832,3.104248 -3.104309,3.104248c-1.714417,0 -3.104248,-1.389771 -3.104248,-3.104248c0,-1.714417 1.389832,-3.104248 3.104248,-3.104248c1.714478,0 3.104309,1.389832 3.104309,3.104248z"/>
  </g>
  <path fill="#000000" id="path2967" d="m122.133347,516.006165c-0.413063,0.267212 -2.462196,1.165649 -4.553596,1.996704c-4.416901,1.755005 -7.868309,6.094604 -9.109337,11.45343c-0.718971,3.104614 0.20491,23.372131 1.08963,23.90387c0.202515,0.121704 0.479553,-0.995239 0.615608,-2.482178c0.298386,-3.260742 3.247826,-6.430481 9.555992,-10.269714c6.665443,-4.056763 8.765213,-6.112061 9.913239,-9.703369c1.189316,-3.72052 0.630157,-13.003601 -0.76236,-12.655579c-2.010963,0.502441 -10.455353,8.127502 -12.350349,11.151855c-2.359375,3.765503 -2.970337,2.92981 -1.274216,-1.742798c0.76899,-2.11853 3.050766,-4.893982 6.525055,-7.936707c2.9384,-2.573425 5.458694,-4.869141 5.600609,-5.101563c0.304405,-0.498413 -4.158005,0.679749 -5.250275,1.386108l0,-0.000061z"/>
  <path fill="#000000" id="path2986" d="m194.959656,543.938904c2.009949,4.920593 -0.728165,19.79126 -5.677521,30.8349c-0.408859,0.912354 -0.611038,0.30481 -0.471207,-1.41626c0.209137,-2.574707 -0.512222,-3.870117 -4.948349,-8.886475c-2.856186,-3.229736 -7.079865,-8.113342 -9.385315,-10.852844l-4.192184,-4.980591l1.407227,-7.075928c0.773987,-3.891724 1.733734,-7.304749 2.132751,-7.584412c0.399017,-0.279663 2.82724,1.596985 5.396088,4.17041c4.194138,4.201599 5.835175,6.603882 8.693436,12.72583c0.481812,1.031982 0.700058,-0.241699 0.485062,-2.830383c-0.330551,-3.979065 -1.170853,-5.700195 -5.435364,-11.13269l-5.044312,-6.425964l5.169693,2.602478c6.459839,3.251892 10.139862,6.616272 11.869995,10.851929l0,0.000061l0,-0.000061z"/>
  <path fill="#000000" id="path3006" d="m454.354828,646.184082c-4.764282,2.128662 -19.616638,0.418762 -30.796906,-3.545593c-0.923645,-0.327515 -0.333038,-0.547791 1.376831,-0.51355c2.557861,0.051208 3.802246,-0.686768 8.536224,-5.062683c3.048035,-2.817444 7.661682,-6.989685 10.253052,-9.271179l4.711212,-4.14856l7.072571,0.910156c3.889893,0.500488 7.315765,1.199097 7.612976,1.552368c0.297241,0.353333 -1.434204,2.700623 -3.847687,5.21637c-3.940491,4.1073 -6.232483,5.756287 -12.141541,8.735107c-0.996124,0.502136 0.275177,0.633606 2.825043,0.292114c3.919403,-0.524902 5.578796,-1.396362 10.733337,-5.636597l6.097168,-5.015747l-2.308228,4.920715c-2.884247,6.14856 -6.022949,9.73468 -10.124054,11.567078l-0.000031,0l0.000031,0z"/>
  <path fill="#000000" d="m451.045929,567.835571c3.550842,-2.685852 16.225739,-4.121399 26.28186,-2.976563c0.83078,0.094543 0.382233,0.391296 -1.045715,0.691711c-2.136047,0.449402 -3.028473,1.302246 -6.121887,5.850281c-1.99173,2.928284 -5.024261,7.283936 -6.739471,9.678894l-3.118195,4.354614l-6.054138,0.603943c-3.329742,0.332153 -6.31189,0.410461 -6.626923,0.17395c-0.315033,-0.236511 0.67276,-2.520752 2.195038,-5.076172c2.485443,-4.172241 4.073517,-5.983765 8.412415,-9.596558c0.731415,-0.609009 -0.350616,-0.473694 -2.40451,0.300598c-3.157043,1.190247 -4.368774,2.233765 -7.83783,6.75l-4.103485,5.342102l0.972198,-4.534302c1.214813,-5.665833 3.134064,-9.250488 6.190643,-11.5625l0,0l0,0z" id="path3008"/>
  <path fill="#000000" id="path3010" d="m427.126678,569.361145c0.591461,-6.338745 0.927368,-7.38208 1.558929,-4.842163c0.337982,1.359131 1.646332,2.714722 4.62326,4.790039c2.283569,1.591919 4.576172,3.403748 5.094727,4.026306c1.020569,1.225342 1.390869,8.030457 0.479523,8.812073c-0.621613,0.533081 -6.605194,-4.687378 -7.341095,-6.404846c-0.424561,-0.990723 -0.489929,-0.972595 -0.654633,0.181458c-0.220215,1.543335 1.792511,4.262451 4.913147,6.637634c2.10379,1.601257 2.13559,1.669312 0.71051,1.520203c-0.820496,-0.085815 -2.824432,-0.874146 -4.453186,-1.751831c-4.218536,-2.273193 -5.592133,-5.885742 -4.931183,-12.968872z"/>
  <path fill="#000000" id="path3036" d="m128.673157,420.849457c-3.125595,-6.464874 -8.30336,-10.652008 -24.683273,-19.960754l-6.758415,-3.840851l2.999458,2.993561c3.816154,3.808319 5.174767,7.229614 6.002296,15.114197c1.063278,10.131012 2.527664,14.159119 6.668724,18.343536c1.96965,1.990356 5.559273,4.645905 7.976822,5.901276l4.395531,2.282471l-0.040298,-1.6633c-0.065521,-2.689636 -3.329933,-14.838074 -4.776688,-17.776398c-0.732635,-1.487885 -2.106537,-3.676544 -3.053177,-4.863647l-1.72113,-2.158356l2.600433,2.158508c5.101479,4.234619 8.40728,11.126099 10.524742,21.940491l0.705887,3.605164l0.534042,-3.019531c1.116074,-6.310333 0.472122,-15.236237 -1.374771,-19.056274l0,0l-0.000183,-0.000092z"/>
  <path fill="#000000" id="path3046" d="m284.368988,349.919281c3.468475,-1.724304 14.616119,-1.06543 23.115021,1.36618c0.702148,0.200867 0.270447,0.383118 -1.006409,0.424835c-1.910065,0.062439 -2.808716,0.644379 -6.16449,3.99231c-2.160675,2.155548 -5.434814,5.351563 -7.276337,7.101898l-3.347931,3.182587l-5.312256,-0.382996c-2.921753,-0.210693 -5.50528,-0.582581 -5.74115,-0.826477c-0.235901,-0.243896 0.961517,-2.008362 2.66095,-3.921112c2.774628,-3.122894 4.418182,-4.404205 8.706543,-6.787689c0.7229,-0.401794 -0.230682,-0.447388 -2.119049,-0.10141c-2.902649,0.531921 -4.105469,1.226501 -7.780396,4.492706l-4.346985,3.863495l1.524445,-3.647461c1.904846,-4.557709 4.102325,-7.272583 7.088043,-8.756866l0,0z"/>
  <path fill="#000000" d="m295.77243,399.419586c-0.332428,0.36261 -2.089172,1.748291 -3.903778,3.079346c-3.832397,2.811066 -6.079376,7.880096 -5.930511,13.378754c0.086304,3.185577 6.085724,22.566803 7.075897,22.858582c0.226654,0.066803 0.213379,-1.083954 -0.02951,-2.557251c-0.532623,-3.230682 1.523254,-7.041199 6.660919,-12.345703c5.428589,-5.60495 6.942902,-8.122925 7.149292,-11.887573c0.213745,-3.900146 -2.665771,-12.743011 -3.92572,-12.05542c-1.81958,0.992798 -8.070892,10.499115 -9.142975,13.903259c-1.334747,4.238373 -2.136475,3.583588 -1.672119,-1.365631c0.210541,-2.243896 1.719604,-5.504639 4.315399,-9.324432c2.195374,-3.230621 4.056122,-6.087158 4.134949,-6.347809c0.169006,-0.55899 -3.852722,1.70517 -4.731812,2.66394l-0.000031,-0.000061z" id="path3048"/>
  <path fill="#000000" id="path3050" d="m271.82724,376.581177c-0.441833,0.12796 -2.468292,0.367065 -4.503174,0.531525c-4.297577,0.347382 -8.806366,3.367004 -11.900101,7.969757c-1.792252,2.666565 -8.892563,21.699402 -8.374176,22.447723c0.118683,0.171265 0.778564,-0.782806 1.4664,-2.120209c1.508392,-2.932739 5.152588,-5.014465 11.806961,-6.744537c7.03125,-1.828094 9.547638,-3.123718 11.879974,-6.116791c2.41629,-3.1008 5.557007,-11.857697 4.281708,-11.938263c-1.841644,-0.116486 -11.713074,4.500916 -14.437378,6.75296c-3.391907,2.803986 -3.568298,1.853546 -0.36792,-1.982239c1.45105,-1.739105 4.395599,-3.648804 8.42041,-5.461121c3.403992,-1.532745 6.35791,-2.929321 6.56424,-3.103455c0.442444,-0.373444 -3.668671,-0.573395 -4.837036,-0.235291l0.000031,-0.000061l0.000061,0z"/>
  <path fill="#ff7f00" d="m637.596863,386.381012c0,1.098419 -0.890442,1.988892 -1.988892,1.988892c-1.098389,0 -1.988892,-0.890472 -1.988892,-1.988892c0,-1.098419 0.890503,-1.988861 1.988892,-1.988861c1.09845,0 1.988892,0.890442 1.988892,1.988861z" id="path3775"/>
  <path fill="#ff7f00" d="m795.731018,477.629272c-18.056274,0 -32.697205,14.64093 -32.697205,32.697235c0,18.056305 14.64093,32.697174 32.697205,32.697174c18.056335,0 32.697205,-14.640869 32.697205,-32.697174c0,-18.056305 -14.640869,-32.697235 -32.697205,-32.697235zm0,14.314728c10.156921,0 18.382507,8.225555 18.382507,18.382507c0,10.156891 -8.225586,18.382477 -18.382507,18.382477c-10.156921,0 -18.401855,-8.225586 -18.401855,-18.382477c0,-10.156952 8.244934,-18.382507 18.401855,-18.382507z" id="path3813"/>
  <path fill="#000000" id="path3948" d="m958.456055,602.649597c4.504517,-4.934753 9.748474,-6.336975 24.998779,-6.684814l6.292358,-0.143494l-3.230957,1.401917c-4.110535,1.78363 -6.276428,4.563232 -9.568237,12.279419c-4.229736,9.914795 -6.679993,13.264343 -11.158142,15.25354c-2.130066,0.946167 -5.681396,1.661621 -7.891907,1.589844l-4.019104,-0.130432l0.595337,-1.704163c0.963013,-2.755493 7.502747,-13.512939 9.569336,-15.740967c1.046509,-1.128174 2.804443,-2.619202 3.906555,-3.313354l2.003784,-1.262024l-2.652588,0.762024c-5.203796,1.494934 -9.986328,6.770203 -15.226196,16.7948l-1.746765,3.341919l0.632874,-3.439148c1.32251,-7.187317 4.833008,-16.089233 7.49469,-19.005127l0,0l0.000183,0.000061z"/>
  <path fill="#ff7f00" id="path3956" d="m802.062561,581.948608c-18.663879,0 -33.796021,15.132202 -33.796021,33.796021c0,18.663879 15.132141,33.796021 33.796021,33.796021c18.663879,0 33.796021,-15.132141 33.796021,-33.796021c0,-18.663818 -15.132141,-33.796021 -33.796021,-33.796021zm0,10.072449c13.100586,0 23.723572,10.622986 23.723572,23.723572c0,13.100586 -10.622986,23.70343 -23.723572,23.70343c-13.100586,0 -23.723572,-10.602844 -23.723572,-23.70343c0,-13.100586 10.622986,-23.723572 23.723572,-23.723572z"/>
  <path fill="#000000" id="path3958" d="m802.062561,595.257935c-11.30603,0 -20.486694,9.180725 -20.486694,20.486694c0,11.30603 9.180664,20.466614 20.486694,20.466614c11.305969,0 20.466614,-9.160583 20.466614,-20.466614c0,-11.305969 -9.160645,-20.486694 -20.466614,-20.486694zm0,9.429077c6.101624,0 11.037476,4.955933 11.037476,11.057617c0,6.101624 -4.935852,11.037476 -11.037476,11.037476c-6.101624,0 -11.057617,-4.935852 -11.057617,-11.037476c0,-6.101685 4.955994,-11.057617 11.057617,-11.057617z"/>
  <path fill="#000000" d="m944.221313,646.236328c-7.792664,2.810303 -11.01062,7.717957 -15.340759,23.395447l-1.786804,6.468567l2.70813,-2.820984c3.444885,-3.589111 7.740295,-4.786987 18.975281,-5.292236c14.436035,-0.649231 19.571594,-1.927307 23.386902,-5.819885c1.81488,-1.851501 3.678345,-5.263428 4.141418,-7.581787l0.841736,-4.215393l-2.447937,-0.024963c-3.958252,-0.039795 -20.115112,2.686523 -23.641663,3.98938c-1.785767,0.659729 -4.240845,1.920349 -5.455566,2.801208l-2.208557,1.601685l1.698792,-2.462646c3.332764,-4.830994 11.654785,-7.801208 26.494751,-9.456116l4.947083,-0.551636l-4.796204,-0.639709c-10.023315,-1.336792 -22.911987,-1.051514 -27.516602,0.609009l0,0l0,0.000061z" id="path3960"/>
  <g fill="#552200" transform="matrix(0.755636 0 0 0.755636 991.531 86.8731)" id="g3962">
   <path fill="#ff7f00" d="m297.225372,689.360046c-8.649475,0 -15.652924,7.003418 -15.652924,15.652893c0,8.649475 7.003448,15.690186 15.652924,15.690186c8.649475,0 15.652924,-7.04071 15.652924,-15.690186c0,-8.649475 -7.003448,-15.652893 -15.652924,-15.652893zm0,3.018738c6.986115,0 12.634155,5.648071 12.634155,12.634155c0,6.986145 -5.648041,12.671448 -12.634155,12.671448c-6.986115,0 -12.634155,-5.685303 -12.634155,-12.671448c0,-6.986084 5.648041,-12.634155 12.634155,-12.634155z" id="path3964"/>
   <path fill="#ff7f00" id="path3966" d="m302.60321,705.029053c0,2.96936 -2.407135,5.376526 -5.376495,5.376526c-2.96936,0 -5.376526,-2.407166 -5.376526,-5.376526c0,-2.96936 2.407166,-5.376526 5.376526,-5.376526c2.96936,0 5.376495,2.407166 5.376495,5.376526z"/>
  </g>
  <path fill="#000000" d="m1098.902344,644.809082c-3.016357,2.734314 -6.659912,14.112793 -7.555176,23.593689c0.69751,-1.414368 4.437378,-4.13031 7.067871,-5.297058c5.138794,-1.71051 6.85022,-2.389038 11.046021,-4.507385c1.268921,-0.569153 3.322266,-2.584656 3.701538,-3.823364c0.347534,-1.135254 1.042725,-3.405823 1.042725,-3.405823c0.917847,-2.998108 1.548462,-5.726746 1.401123,-6.063538c-4.723267,-0.088745 -9.006592,2.684265 -12.520752,5.586914c-0.039551,-3.179138 2.530029,-5.067688 5.791382,-6.763977l5.44165,-2.715576l-4.145508,-0.005615c-5.180054,-0.006775 -8.674316,1.047791 -11.270874,3.40155l0,0l0,0.000183z" id="path3982"/>
  <path fill="#000000" d="m1148.42334,643.196106c6.383667,3.696289 9.075562,8.928955 12.832397,24.945129l1.550171,6.608337l-2.245728,-3.108887c-2.857056,-3.955139 -6.370483,-5.645325 -15.521484,-7.466675c-11.758301,-2.34021 -15.956787,-4.208435 -19.119629,-8.507446c-1.504517,-2.044861 -3.071777,-5.638794 -3.483032,-7.98645l-0.747681,-4.268494l1.991821,0.263306c3.220825,0.426208 16.4104,5.023376 19.299927,6.726868c1.463135,0.862671 3.479858,2.398254 4.481445,3.412476l1.821289,1.844055l-1.419189,-2.63562c-2.784058,-5.170532 -9.600952,-9.08728 -21.702881,-12.469727l-4.034424,-1.127686l3.893921,-0.068481c8.137573,-0.14325 18.631104,1.654968 22.403198,3.83905l0,0l-0.000122,0.000244z" id="path3984"/>
  <g fill="#552200" id="g3994" transform="matrix(0.994312 0 0 0.994312 541.115 69.1222)">
   <path fill="#ff7f00" id="path3996" d="m539.349609,542.276672c-6.934143,0 -12.558716,5.624512 -12.558716,12.558655c0,6.934143 5.624573,12.558716 12.558716,12.558716c6.934143,0 12.558655,-5.624573 12.558655,-12.558716c0,-6.934143 -5.624512,-12.558655 -12.558655,-12.558655zm0,2.926025c5.316162,0 9.632629,4.316467 9.632629,9.632629c0,5.316223 -4.316467,9.632629 -9.632629,9.632629c-5.316162,0 -9.632629,-4.316406 -9.632629,-9.632629c0,-5.316162 4.316467,-9.632629 9.632629,-9.632629z"/>
   <path fill="#ff7f00" d="m541.580383,554.83667c0,1.233887 -1.000244,2.234131 -2.234131,2.234131c-1.233826,0 -2.23407,-1.000244 -2.23407,-2.234131c0,-1.233887 1.000244,-2.234131 2.23407,-2.234131c1.233887,0 2.234131,1.000244 2.234131,2.234131z" id="path3998"/>
  </g>
  <g fill="#008000" transform="matrix(1.15522 0 0 1.15522 352.251 -446.801)" id="g4012">
   <path fill="#ff7f00" d="m297.225372,702.343018c-8.649475,0 -15.652924,7.003418 -15.652924,15.652893c0,8.649475 7.003448,15.690186 15.652924,15.690186c8.649475,0 15.652924,-7.04071 15.652924,-15.690186c0,-8.649475 -7.003448,-15.652893 -15.652924,-15.652893zm0,3.018738c6.986115,0 12.634155,5.648071 12.634155,12.634155c0,6.986145 -5.648041,12.671448 -12.634155,12.671448c-6.986115,0 -12.634155,-5.685303 -12.634155,-12.671448c0,-6.986084 5.648041,-12.634155 12.634155,-12.634155z" id="path4014"/>
   <path fill="#ff7f00" id="path4016" d="m301.744385,718.012024c0,2.495056 -2.022644,4.517639 -4.51767,4.517639c-2.495056,0 -4.51767,-2.022583 -4.51767,-4.517639c0,-2.495056 2.022614,-4.5177 4.51767,-4.5177c2.495026,0 4.51767,2.022644 4.51767,4.5177z"/>
  </g>
  <g fill="#008000" id="g4018" transform="matrix(-1.3988 1.23895 -1.23895 -1.3988 2892.09 514.403)">
   <path fill="#ff7f00" id="path4020" d="m806.549072,742.639954c-7.560486,0 -13.693054,6.132568 -13.693054,13.693054c0,7.560486 6.132568,13.693054 13.693054,13.693054c7.560486,0 13.693054,-6.132568 13.693054,-13.693054c0,-7.560486 -6.132568,-13.693054 -13.693054,-13.693054zm0,3.190369c5.796387,0 10.502686,4.706299 10.502686,10.502686c0,5.796387 -4.706299,10.502747 -10.502686,10.502747c-5.796387,0 -10.502686,-4.70636 -10.502686,-10.502747c0,-5.796387 4.706299,-10.502686 10.502686,-10.502686z"/>
   <path fill="#ff7f00" d="m812.437988,756.334534c0,3.254333 -2.638184,5.892578 -5.892578,5.892578c-3.254395,0 -5.892578,-2.638245 -5.892578,-5.892578c0,-3.254395 2.638184,-5.892578 5.892578,-5.892578c3.254395,0 5.892578,2.638184 5.892578,5.892578z" id="path4022"/>
  </g>
  <path fill="#000000" id="path4034" d="m788.256104,408.568451c4.303284,-1.141876 16.578369,2.327454 25.45282,7.193726c0.733154,0.402008 0.205627,0.506897 -1.229736,0.244415c-2.147278,-0.392578 -3.296082,0.058899 -7.88092,3.097534c-2.952026,1.956421 -7.407654,4.839996 -9.901794,6.40744l-4.534668,2.850189l-5.832153,-1.732758c-3.207703,-0.953003 -5.997559,-2.00943 -6.199646,-2.347595c-0.202026,-0.338135 1.576904,-2.078522 3.953247,-3.867493c3.879883,-2.920898 6.035461,-3.99646 11.419067,-5.697937c0.907532,-0.286835 -0.145142,-0.571198 -2.339294,-0.631989c-3.372681,-0.093445 -4.889282,0.413788 -9.809753,3.280701l-5.820313,3.391205l2.616272,-3.828827c3.269165,-4.784332 6.402527,-7.375732 10.106873,-8.358643l0,0.000031l0,0z"/>
  <path fill="#000000" d="m758.280518,437.141022c-2.614136,2.289642 -5.462158,11.483154 -5.905518,19.06311c-0.036682,0.62619 0.259705,0.331635 0.690918,-0.686707c0.64502,-1.523376 1.443359,-2.076599 5.476868,-3.794861c2.597046,-1.106323 6.469299,-2.80368 8.604919,-3.772278l3.883057,-1.760834l1.295349,-4.401489c0.712463,-2.420807 1.176147,-4.616302 1.030457,-4.878876c-0.14563,-0.262573 -2.095276,0.181946 -4.332581,0.987793c-3.652771,1.315704 -5.307251,2.263336 -8.764648,5.019745c-0.582825,0.46463 -0.329529,-0.318573 0.562805,-1.74054c1.371582,-2.185669 2.364685,-2.951111 6.423401,-4.951172l4.801025,-2.365845l-3.737,0.151337c-4.669556,0.189117 -7.778809,1.159668 -10.029053,3.130615l0,0.000031l0,-0.000031z" id="path4036"/>
  <path fill="#000000" d="m1033.407715,571.518677c-4.075073,0.72229 -28.114746,10.794312 -28.304626,11.859009c-0.038818,0.217468 1.549927,0.135681 3.530457,-0.181763c4.680115,-0.750122 10.796021,2.110535 19.455078,9.099792c3.627075,2.927612 8.092407,5.590149 9.923096,5.916626c4.142822,0.738953 12.877686,-1.641418 16.833496,-4.587402l2.979736,-2.218933l-7.561035,-4.610229c-4.158569,-2.535583 -9.801025,-5.026184 -12.538818,-5.534668c-4.077881,-0.757263 -4.552612,-1.079651 -2.626465,-1.783203c4.068359,-1.486084 11.871582,0.589478 18.947998,5.039856c3.753662,2.360657 6.740723,3.846985 6.638062,3.302917c-0.368164,-1.950256 -9.197632,-11.676941 -12.603638,-13.884399c-4.296631,-2.784851 -8.600464,-3.493896 -14.67334,-2.417603z" id="path4050"/>
  <path fill="#000000" id="path4063" d="m883.117065,534.19873c-7.254089,-1.33844 -12.700317,0.889893 -25.963135,10.622864l-5.47229,4.015869l3.727112,-0.90387c4.741699,-1.149963 8.51062,-0.151611 16.649902,4.410095c10.458313,5.861511 14.863647,7.169678 20.061218,5.957092c2.47229,-0.576782 5.998901,-2.2901 7.837036,-3.807434l3.341919,-2.758728l-1.685242,-1.094116c-2.725037,-1.76886 -15.737854,-6.844971 -19.041077,-7.427612c-1.672729,-0.295044 -4.20343,-0.438232 -5.623901,-0.318176l-2.582581,0.218262l2.791321,-1.081238c5.475952,-2.121094 13.202637,-0.668762 24.599426,4.62384l3.799316,1.764404l-2.915283,-2.582336c-6.092407,-5.396545 -15.237244,-10.848267 -19.523621,-11.63916l0,0l-0.000122,0.000244z"/>
  <g fill="#552200" transform="matrix(0.994312 0 0 0.994312 359.989 33.4068)" id="g4067">
   <path fill="#000000" d="m539.349609,542.276672c-6.934143,0 -12.558716,5.624512 -12.558716,12.558655c0,6.934143 5.624573,12.558716 12.558716,12.558716c6.934143,0 12.558655,-5.624573 12.558655,-12.558716c0,-6.934143 -5.624512,-12.558655 -12.558655,-12.558655zm0,2.926025c5.316162,0 9.632629,4.316467 9.632629,9.632629c0,5.316223 -4.316467,9.632629 -9.632629,9.632629c-5.316162,0 -9.632629,-4.316406 -9.632629,-9.632629c0,-5.316162 4.316467,-9.632629 9.632629,-9.632629z" id="path4069"/>
   <path fill="#000000" id="path4071" d="m543.356262,554.83667c0,2.214661 -1.795349,4.01001 -4.01001,4.01001c-2.214661,0 -4.009949,-1.795349 -4.009949,-4.01001c0,-2.214661 1.795288,-4.009949 4.009949,-4.009949c2.214661,0 4.01001,1.795288 4.01001,4.009949z"/>
  </g>
  <path fill="#000000" id="path4083" d="m939.138916,558.928467c5.75708,3.333435 8.184631,8.052429 11.572754,22.496521l1.39801,5.959656l-2.025269,-2.803711c-2.576599,-3.566956 -5.745178,-5.091187 -13.997925,-6.733765c-10.604126,-2.110474 -14.390564,-3.795288 -17.24292,-7.672363c-1.35675,-1.844177 -2.770264,-5.085266 -3.141174,-7.202515l-0.674255,-3.849487l1.796387,0.237488c2.904663,0.384338 14.799561,4.530212 17.405396,6.066528c1.319519,0.777954 3.138245,2.162842 4.041626,3.077515l1.642456,1.663025l-1.279846,-2.376953c-2.510803,-4.662964 -8.658569,-8.195251 -19.572571,-11.245667l-3.638428,-1.016968l3.511719,-0.061768c7.338745,-0.12915 16.802307,1.492554 20.204102,3.46228l0,0l-0.000061,0.000183z"/>
 </g>
</svg>