<?xml version="1.0" encoding="utf-8"?>
<!DOCTYPE svg PUBLIC "-//W3C//DTD SVG 1.1//EN" "http://www.w3.org/Graphics/SVG/1.1/DTD/svg11.dtd">
<svg version="1.1" id="Layer_1" xmlns="http://www.w3.org/2000/svg" xmlns:xlink="http://www.w3.org/1999/xlink" x="0px" y="0px"
	 width="165px" height="175px" viewBox="0 0 165 175" enable-background="new 0 0 165 175" xml:space="preserve">
<g>
	<path fill="#FFFFFF" d="M51.65,125.8c-3.73-8.5-11.52-25.54-17.29-43.45c-2.39-7.41-4.11-14.01-3.91-18.77
		c0.16-3.63,2.52-5.42,5.64-4.21c3.97,1.55,8.96,5.85,14.4,11.25c3.03,3.02,6.13,6.35,9.19,9.82c3.36,3.82,6.74,7.88,10.07,12.21
		l0,0c-3.52-4.57-7.06-8.81-10.56-12.8c-3.21-3.65-6.45-7.14-9.62-10.32C43.84,63.8,38.6,59.2,34.43,57.51
		c-3.2-1.29-5.59,0.62-5.65,4.41c-0.06,5.12,1.93,12.13,4.62,20.02c3.08,9.03,6.85,18.19,10.43,26.51
		c3.73,8.68,6.92,15.62,8.73,19.6L51.65,125.8z"/>
	<path fill="#FFFFFF" d="M86.35,128.78c-4.25,7.46-12.77,23.04-21.72,34.58c-3.71,4.77-7,8.23-9.38,7.82
		c-1.82-0.31-2.71-5.04-2.11-11.28c0.78-7.94,2.93-17.93,5.63-28.8c1.51-6.07,3.17-12.26,4.91-18.38c1.91-6.72,3.94-13.48,6.1-20.13
		l0,0c-2.29,7.04-4.41,14.12-6.4,21.12c-1.82,6.42-3.57,12.9-5.16,19.24c-2.86,11.44-5.16,21.92-6.01,30.27
		c-0.64,6.39,0.31,11.18,2.21,11.3c2.56,0.13,6.06-3.86,10.01-9.24c4.52-6.16,9.09-13.7,13.26-20.85c4.34-7.45,7.81-13.84,9.8-17.47
		L86.35,128.78z"/>
	<path fill="#FFFFFF" d="M87.84,59.38c3.73,8.5,11.52,25.54,17.29,43.45c2.39,7.41,4.11,14.01,3.91,18.77
		c-0.16,3.63-2.52,5.42-5.64,4.21c-3.97-1.55-8.96-5.85-14.4-11.25c-3.03-3.02-6.13-6.35-9.19-9.82
		c-3.36-3.82-6.74-7.88-10.07-12.21l0,0c3.52,4.57,7.06,8.81,10.56,12.8c3.21,3.65,6.45,7.14,9.62,10.32
		c5.72,5.72,10.96,10.32,15.13,12.02c3.2,1.29,5.59-0.62,5.65-4.41c0.06-5.12-1.93-12.13-4.62-20.02
		c-3.08-9.03-6.85-18.19-10.43-26.51c-3.73-8.68-6.92-15.62-8.73-19.59L87.84,59.38z"/>
	<path fill="#FFFFFF" d="M53.14,56.4c4.25-7.46,12.77-23.04,21.72-34.58c3.71-4.77,7-8.23,9.38-7.82c1.82,0.31,2.71,5.04,2.1,11.28
		c-0.78,7.94-2.93,17.93-5.63,28.8c-1.51,6.07-3.17,12.26-4.91,18.38c-1.91,6.72-3.94,13.48-6.1,20.13l0,0
		c2.29-7.04,4.41-14.12,6.4-21.12c1.82-6.42,3.57-12.9,5.16-19.24c2.86-11.44,5.16-21.92,6.01-30.27c0.64-6.39-0.31-11.18-2.21-11.3
		c-2.56-0.13-6.06,3.86-10.01,9.24c-4.52,6.16-9.09,13.7-13.26,20.85c-4.34,7.45-7.81,13.84-9.8,17.47L53.14,56.4z"/>
</g>
<g>
	<path fill="#6F8133" d="M101.42,67.78c4.66,4.25,14.4,12.77,21.61,21.72c2.98,3.71,5.14,7,4.89,9.38c-0.2,1.82-3.15,2.71-7.05,2.1
		c-4.96-0.78-11.21-2.93-18-5.63c-3.79-1.51-7.66-3.17-11.49-4.91c-4.2-1.91-8.43-3.94-12.58-6.1l0,0c4.4,2.29,8.82,4.41,13.2,6.4
		c4.01,1.82,8.06,3.57,12.03,5.16c7.15,2.86,13.7,5.16,18.92,6.01c3.99,0.64,6.99-0.31,7.06-2.21c0.08-2.56-2.41-6.06-5.77-10.01
		c-3.85-4.52-8.56-9.09-13.03-13.26c-4.66-4.34-8.65-7.81-10.92-9.8L101.42,67.78z"/>
	<path fill="#6F8133" d="M58.05,66.29C63.36,62.56,74.01,54.77,85.21,49c4.63-2.39,8.75-4.11,11.73-3.91
		c2.27,0.16,3.39,2.52,2.63,5.64c-0.97,3.97-3.66,8.96-7.03,14.4c-1.89,3.03-3.97,6.13-6.14,9.19c-2.38,3.36-4.93,6.74-7.63,10.07
		l0,0c2.86-3.52,5.51-7.06,8-10.56c2.28-3.21,4.46-6.45,6.45-9.62c3.58-5.72,6.45-10.96,7.51-15.13c0.8-3.2-0.39-5.59-2.76-5.65
		c-3.2-0.06-7.58,1.93-12.52,4.62c-5.64,3.08-11.37,6.85-16.57,10.43c-5.43,3.73-9.76,6.92-12.25,8.73L58.05,66.29z"/>
	<path fill="#6F8133" d="M56.19,100.99c-4.66-4.25-14.4-12.77-21.61-21.72c-2.98-3.71-5.14-7-4.89-9.38c0.2-1.82,3.15-2.71,7.05-2.1
		c4.96,0.78,11.2,2.93,18,5.63c3.79,1.51,7.66,3.17,11.49,4.91c4.2,1.91,8.43,3.94,12.58,6.1l0,0c-4.4-2.29-8.82-4.41-13.2-6.4
		c-4.01-1.82-8.06-3.57-12.03-5.16c-7.15-2.86-13.7-5.16-18.92-6.01c-4-0.64-6.99,0.31-7.06,2.21c-0.08,2.56,2.41,6.06,5.77,10.01
		c3.85,4.52,8.56,9.09,13.03,13.26c4.66,4.34,8.65,7.81,10.92,9.8L56.19,100.99z"/>
	<path fill="#6F8133" d="M99.56,102.48C94.25,106.21,83.6,114,72.4,119.77c-4.63,2.39-8.76,4.11-11.73,3.91
		c-2.27-0.16-3.39-2.52-2.63-5.64c0.97-3.97,3.66-8.96,7.03-14.4c1.89-3.03,3.97-6.13,6.14-9.19c2.39-3.36,4.93-6.74,7.63-10.07l0,0
		c-2.86,3.52-5.51,7.06-8,10.56c-2.28,3.21-4.46,6.45-6.45,9.62c-3.58,5.72-6.45,10.96-7.51,15.13c-0.8,3.2,0.39,5.59,2.76,5.65
		c3.2,0.06,7.58-1.93,12.51-4.62c5.65-3.08,11.37-6.85,16.57-10.43c5.42-3.73,9.76-6.92,12.25-8.73L99.56,102.48z"/>
</g>
<g>
	<path fill="#61751F" d="M104.6,126.66c-7.44,6.76-22.35,20.88-38.02,31.34c-6.49,4.33-12.26,7.45-16.42,7.09
		c-3.18-0.28-4.75-4.57-3.68-10.22c1.36-7.2,5.12-16.25,9.84-26.1c2.64-5.5,5.55-11.11,8.6-16.66c3.34-6.09,6.9-12.22,10.68-18.25
		l0,0c-4,6.38-7.71,12.8-11.2,19.14c-3.19,5.82-6.25,11.69-9.03,17.44c-5.01,10.36-9.03,19.86-10.52,27.43
		c-1.12,5.79,0.54,10.13,3.86,10.24c4.48,0.12,10.61-3.49,17.52-8.37c7.9-5.58,15.92-12.42,23.2-18.9
		c7.59-6.75,13.67-12.54,17.15-15.83L104.6,126.66z"/>
	<path fill="#61751F" d="M107.21,63.77c6.52,7.7,20.16,23.14,30.26,39.37c4.18,6.72,7.2,12.7,6.84,17.01
		c-0.27,3.29-4.41,4.92-9.87,3.82c-6.95-1.41-15.69-5.3-25.2-10.2c-5.31-2.74-10.73-5.75-16.08-8.9
		c-5.88-3.46-11.8-7.14-17.62-11.06l0,0c6.16,4.14,12.35,7.99,18.48,11.6c5.61,3.31,11.29,6.47,16.84,9.35
		c10.01,5.19,19.18,9.35,26.48,10.89c5.59,1.16,9.78-0.56,9.88-4c0.11-4.64-3.37-10.99-8.08-18.15
		c-5.39-8.18-11.99-16.48-18.25-24.03c-6.52-7.87-12.11-14.15-15.28-17.76L107.21,63.77z"/>
	<path fill="#61751F" d="M46.49,61.07c7.44-6.76,22.35-20.88,38.02-31.34c6.49-4.33,12.26-7.45,16.42-7.09
		c3.18,0.28,4.74,4.57,3.68,10.22c-1.36,7.2-5.12,16.25-9.84,26.1c-2.64,5.5-5.55,11.11-8.6,16.66c-3.34,6.09-6.9,12.22-10.68,18.25
		l0,0c4-6.38,7.71-12.79,11.2-19.14c3.19-5.81,6.25-11.69,9.03-17.44c5.01-10.36,9.03-19.86,10.52-27.43
		c1.13-5.79-0.54-10.13-3.86-10.24c-4.48-0.12-10.61,3.49-17.52,8.37c-7.9,5.59-15.91,12.41-23.2,18.9
		c-7.6,6.75-13.67,12.54-17.15,15.83L46.49,61.07z"/>
	<path fill="#61751F" d="M43.88,123.96c-6.52-7.7-20.16-23.14-30.26-39.38c-4.18-6.72-7.2-12.7-6.84-17.01
		c0.27-3.29,4.41-4.91,9.87-3.81c6.95,1.41,15.69,5.3,25.2,10.2c5.31,2.74,10.73,5.75,16.08,8.9c5.88,3.46,11.8,7.14,17.62,11.06
		l0,0c-6.16-4.14-12.35-7.99-18.48-11.6c-5.61-3.31-11.29-6.47-16.84-9.35c-10.01-5.19-19.18-9.35-26.48-10.89
		c-5.59-1.16-9.78,0.56-9.88,4c-0.11,4.64,3.37,10.99,8.08,18.15c5.39,8.19,11.99,16.48,18.25,24.03
		c6.52,7.87,12.11,14.15,15.28,17.76L43.88,123.96z"/>
</g>
<g>
	<path fill="#5C7117" d="M118.01,48.44c7.46,8.5,23.04,25.54,34.58,43.45c4.77,7.41,8.23,14.01,7.82,18.77
		c-0.31,3.63-5.04,5.42-11.28,4.21c-7.94-1.55-17.93-5.85-28.8-11.25c-6.07-3.02-12.26-6.35-18.38-9.82
		c-6.72-3.82-13.48-7.88-20.13-12.21l0,0c7.04,4.57,14.12,8.81,21.12,12.8c6.42,3.65,12.9,7.14,19.24,10.32
		c11.44,5.72,21.92,10.32,30.27,12.02c6.39,1.29,11.18-0.62,11.3-4.41c0.13-5.12-3.86-12.13-9.24-20.02
		c-6.16-9.03-13.7-18.19-20.85-26.51c-7.45-8.68-13.84-15.62-17.47-19.6L118.01,48.44z"/>
	<path fill="#5C7117" d="M48.62,45.46c8.5-7.46,25.54-23.04,43.45-34.58c7.41-4.77,14.01-8.23,18.77-7.82
		c3.63,0.31,5.42,5.04,4.21,11.28c-1.55,7.94-5.85,17.93-11.25,28.8c-3.02,6.07-6.35,12.26-9.82,18.38
		C90.15,68.23,86.08,75,81.76,81.65l0,0c4.57-7.04,8.81-14.12,12.8-21.12c3.65-6.42,7.14-12.9,10.32-19.24
		c5.72-11.44,10.32-21.92,12.02-30.27c1.29-6.39-0.62-11.18-4.41-11.3c-5.12-0.13-12.13,3.86-20.02,9.24
		c-9.03,6.16-18.19,13.7-26.51,20.85c-8.68,7.45-15.62,13.84-19.59,17.47L48.62,45.46z"/>
	<path fill="#5C7117" d="M45.64,114.86c-7.46-8.5-23.04-25.54-34.58-43.45C6.28,64,2.83,57.4,3.24,52.64
		c0.31-3.63,5.04-5.42,11.28-4.21c7.94,1.55,17.93,5.85,28.8,11.25c6.07,3.02,12.26,6.35,18.38,9.82
		c6.72,3.82,13.48,7.88,20.13,12.21l0,0c-7.04-4.57-14.12-8.81-21.12-12.8c-6.42-3.65-12.9-7.14-19.24-10.32
		c-11.44-5.72-21.92-10.32-30.27-12.02c-6.39-1.29-11.18,0.62-11.3,4.41C-0.23,56.1,3.75,63.11,9.13,71
		c6.16,9.03,13.7,18.19,20.85,26.51c7.45,8.68,13.84,15.62,17.47,19.59L45.64,114.86z"/>
	<path fill="#5C7117" d="M115.03,117.84c-8.5,7.46-25.54,23.04-43.45,34.58c-7.41,4.77-14.01,8.23-18.77,7.82
		c-3.63-0.31-5.42-5.04-4.21-11.28c1.55-7.94,5.85-17.93,11.25-28.8c3.02-6.07,6.35-12.26,9.82-18.38
		c3.82-6.72,7.88-13.48,12.21-20.13l0,0c-4.57,7.04-8.81,14.12-12.8,21.12c-3.65,6.42-7.14,12.9-10.32,19.24
		c-5.72,11.44-10.32,21.92-12.02,30.27c-1.29,6.39,0.62,11.18,4.41,11.3c5.12,0.13,12.13-3.86,20.02-9.24
		c9.03-6.16,18.19-13.7,26.51-20.85c8.68-7.45,15.62-13.84,19.59-17.47L115.03,117.84z"/>
</g>
</svg>
